<?xml version="1.0" encoding="UTF-8"?> <svg xmlns="http://www.w3.org/2000/svg" id="Layer_1" width="195.7mm" height="189.1mm" version="1.1" viewBox="0 0 554.7 536"><defs><style> .st0 { fill: #1d1d1b; fill-rule: evenodd; } .st1 { fill: #fff; } </style></defs><path class="st0" d="M297.1,490.8c.3,3,.3,1.6,1.1,2.5,5.1,6.2,9.1-1,15.2,6.1,7.3,8.5,9.2,19.4,11.9,21.2,5-1.7-2.6,0,2.4-1.6,4.9,3.3,13.7,16.3,19.4,17-.7-2.5-3.9-5.1-6-6.9-5.3-4.5-9.6-9.8-14.1-14.9-2.2-2.5-1.6-1.8-3-5l-.9-2.1c-.4-1-.5-1.5-.7-1.9l-.9-2.5c-.3-1.6-.3-2.2-.3-3.8,2.5.5,1.8.2,3.7.6,1.8.4,1.8.6,3.5,1.1l9.2,3.3c1.2.5,6.8,3.6,10.3,3.9-1.3-3.2,1.4-.8-1.1-3-1.2-1-6-2.7-7.9-3.4-2.8-1-5.3-2-8.1-2.4-1.1-.2-.9,0-2.1-.3-1.8-.5-.2,0-1.6-.8-3.1-1.6-4.4-1.3-8.3-2.2l-1.7-5s0-.3-.2-.4c-.7-1.3-1.6-2.5-1.6-3.9,0-4.8,3.2-3.6,2.7-5.2-1.3-.6,0-.3-2.2.2-.3,0-.6.4-2.7.6-4.3-8,8.1-6.2,9.1-5.7l10.8,8.4c2.9,2.2,5.8,4.4,7.9,7.4l3.6,4.5c9,8.9,6,10.9,11.4,9.6l-3.5-4.6c-3.3-5-7.4-5.3-2.8-10.6,2.2-2.5,1.6-3.3,3.9-5.1.6,1.2,1.5,5.2,1.8,6.9.5,2.5,0,2,.6,5.2,5.8,0,1.7-2,2.1-9.9l-.5-15.1c3.4.9,1.7.4,3.2,3.2,2.3-1.5,2.5-1.8,4.8-.8-.4-5-2-2.2.8-6.5,1.8.7,1.7.4,2.9,2.8,2,4,1.1,7.6,6.8,7.7-.3-3.2-2.8-5.7-3.9-8.2-1.6-3.4-2.9-5.4,2-5.3,5.2,0,5.6-2.3,10.3-3.9,2.8-1,.4-1,4.6-1.1,1.5,6.3,2.5,11.5,2,15.6,0,.2,0,.6,0,.8l-.6,2.4c-.2,1.9,0,1.1,0,3.7s-.3.7.3,4.1c0,.2.5,3.3.5,3.4l3.1,9.8c0,.3.3,2.2.6,3.6l1.2,6.5c1.1,4.9,0,4.8,2.6,5.9,1.6-3.4-.5-8.7-1.3-12.5l-2.7-9.4c-1.2-4.3-3.3-7.8-2.7-12.1,1-7.4.3-10.5.2-17.6,3.2,1.7,3.1,2.3,5.9,4.2,2,1.3,0-1.6,1.9,1.8,1.6,2.7.9,4.4.2,6.3-1.7,4.6-5.4,6.1,1.7,5.5.3-3.5.6-1.8,1.1-3.8.2-.6.4-1.9.5-3.4,2.6.2,2.5.3,3.9,1.7,2.8,2.8,3.2,6,7.4,7.1-1.4-5.9-3.1-2.2-2.8-7.9,0-1.9,0-1.9-.2-3.8-.7-3.8-.9-.8-.2-4.5h1.6c.4,4.6,4.4,5.7,6.6,8.8,1.7,2.3.9,2.8,3.4,4.7,1.3.9,3.2,1.8,4.5,2.7-.8-3.3-1.2-3.3-3.4-5.5-3.3-3.2-4.4-7.2-8.3-11.1s-4.5-1.6,2.1-6.1c-1-1.6-.9-.9-1.3-2.6v-2c.4-2.1,5.7-10.7,7.8-10.7s5,2.3,5.3,3.8c.5,2.1-5.7,11.5-4.5,17.2h3.2c.2-2,1-7.5,1.5-9l2.3-6.4c3.3-9.2,7.9-1.1,7.9-1.2s.2.3.4.5c-1,3.8-1.3.7-1.6,4.8,3.4.3,3.1.4,3.7,2.6,1.4,5.1,4.2,9,5.6,13.8,0,.2,0,.8.2,1,1.2,4.9,3.2,8.9,5.2,13.5l.6,1.4c1.6-2.4,2.5-2.3,1.6-4.9l-8.4-20.8c0,0,0-.3,0-.4l-1.5-4.3c-.8-2.8-1.8-5.4-2.1-8.3,1.8.8,3.2.4,7.1,1l5.8,1.6c4.2,1.4,6.1.2,9.5,1.7l1,.5c-.2,2.9-1,3.8-1.6,6.5,5-1.3-.9-8.5,12.7-4.2,2.6.8,3,1.5,5-1.5-2.7-1.8-.5-1-4-1.7l-4.3-.9s-.3,0-.4,0c-2.1-.6-3.2-1.3-5-.5,0-6.2.2-5.7.8-11.3,1-9.7-1.3-10.2.5-15.7,1.5-4.9,1.1-9.5,1.8-13.6.4-2.4,0-5.3,2.4-5.7,2-.4,0,.2,1.6-.3,6.7-2.2,5.9-.4,12.2,0,2.6.2,8.2.2,10.3.4,4.1.3,5.3,1.7,7.6-1.4-5.5-2.6-9.5-.4-15.4-1.9-11.4-2.8-17.2,2.8-19.7-5.9,0-.5,0-.6-.4-1.3l-6-9.1c-2.5-3.6-1.3.5-5.2-3.6,1.1-1.6,2.1-2,3-2.3,2.6-.9,2.5-1.5,5.9-1.8-1.3-2-2.2-3.1.4-5.3l7.2-5.8c4.6-4.3,9-2.1,10.9-10.1.7-2.9.4-5.7.8-6.1,1.5-1.8,1.1-.5,2.6-.8l5.8-2.3c0,0,.3,0,.4,0,0,0,.3,0,.5,0s.4,0,.5-.2c.5-.2-.5,0,1.7-.7v-3.2c-4.1.3-6.3,1.1-8.9,0,3.3-4.6,0,2.3,3.2-2.2,1-1.4,0-1.9,1.5-4.4,1-1.5,2.4-2.3,4-3.4,2.4-1.6,2.4-.2,2.7-3.8,4.2.3,5.2,3.8,5.6,4.6l1.5,3.3c1.1,3.2,1.4,2.7,1.5,5.2l.5,5c.5,3.4-1.1,18.8,1.5,20.6,2.4-4.9.3-13.5.8-19.4,4.2.4.9-.6,2.4,1.4,1.4,1.9,2.3,6,2.5,8.3h1.6c.7-3.4.4-1.7-.9-4.3,0,0-.2-.3-.2-.4l-1.4-2.8c-3.2-6.8-5.4-12.8-6.4-20.7-.5-4.2-2.7-8.1-3.3-12.1-.5-2.9,2.2-6.3,5-7,3.6-.8,2.7-.5,1.6-4.4h4c0-4,.4-5.5,1.6-8.1-3.3-1.6-3.1.2-4-4-2.3,1.6-1.1,1.6-4,2.4-.4-.6-.2-.4-.3-1v-.8c-.3-4.1-1.5-10.6,4.5-11.1-1.3-4.8-3.9-4.7,3.3-4.6l6.3.4c7.4,1.5,9.1,1.1,19.4,1.1-1.7-2.6-.9-2-4.6-2.7-1.4-.3-3.5-.5-5.9-.5-4.3,0-21.2-.3-22.6-4.2-.2-.6-.4-1.5-.5-1.6l-2-3.9c1.2-.6,0,.2,1.8-.2,2.5-.6,2.5-1.9,3.8-3.1,3.6-3.3,1.7,1.6,4.9-3.2-1.6-.7-2.6-.6-4.2-.3l-.8.3c-1.9.5-3.9.3-4.7-2.4,3-.7,4.7-1.5,6.7-1.5,9.1-.2,5.1,7.4,18.4-5.6l10.7-8.7c1.6-1.1,1.4-.9,2.8-2,.2-.2.7-.6,1.3-1.1l1-.7c2.3-1.6,2.5-2.2,3.5-4.5-5.7,0-3.2.3-6.8,2.9l-10.1,7.6c-3.5,2.7-5.4,6.4-10,7.9-12.3,3.9-8.6-4.5-15.1-7.9,0,.2.3.4.3.5,2,4.2.4,3-1.1,3.5l1.8,2.4c1.3,1.6,3.8,2.4-2.5,1.6-2.7-.4-.9-.2-3-.3-5-.2-6.2,1.5-6.8-6.2.8-3,6.8-7.3,9.3-10,1.6-1.7,1.7-1.5,2-3.7-3.8.3-7.1,4-9.4,6.7l-1.9,3c-5.4-.4-1.6-1.1-4.3-3.7-1.2-1.2-1.6-.4-4.6-1.1,0-5.6.8-5.3-1.6-8.9,3.9.3,4.1,2.3,7.4,3.9,1.8.9-.3.2,2.3.9l.4-1.1c.4-1.2,0,.2.4-1.4.7-3.4.9-1,0-3-.9-1.8-2.9-3.1-5.5-3.3v-2.4c4-1.1,4.2-3.8,8.2-5.5,3.2-1.4,6.1-3.4,9.6-4.2v-1.6c-2.1.2-9.1,3.8-9.7,3.2-3-3,5-4.3,6.3-4.7l4.3-.9c1.8-.4,4.2,0,2.9-2.8-1.4-2.8-.2-.2-3.8-.3-4.6,0,0-.6-3.8-1.9-1.9-.7-4.4.9-9.8.9,1.1-3.1,4.3-6.9,4.4-7.1.7-1.2,2.6-.6.5-2.7-1.3-1.3,0-.6-2-.4l-9,2c-2.1.5-2,.9-4.2.7-3-.3-3-.5-4.3-2.2-1.1-1.4-1.4-1.9-1.6-4,3.2.3,2.2.7,4.2,2.3l1.4,1c0-4.6-2.2-6.8-3.2-7.7l-5.3-4c-3.8-4.3,1.9-8.6,3.2-12.5,0,0,.4-2.6.5-4,2.4,1.6,3.4,3.4,4.8,5.7.9,1.5.8,1.1,1.8,3l3.3,6.4c.6,1.2.2.4.9,1.6,0,0,.8,1.2,1,1.4l3.1,4.1c1.2,1.2.2.4,1.3,1.1-.7-3.1-2.2-4.3-3.8-6.7,0-.2-.2-.4-.3-.5l-8.7-16.4c-.5-1.9,0-5,.2-5.6.2-.8,1.3-3,2.2-4.4l2.3-3.4-1.7-4.2c4.6-.4,1-1.2,5.7-1.6-.9-1.7-1.1-1.9-1.6-4-1.7,1.1-4,2.2-5.8,3.1l-6.5,2.4c-2.1,1.2-2.4,3.3-3.9,5l-2.5,2.3c-1.5.8-.7.9-3.2.9-5,0-6.6.2-7.9-3.9-1-3.2-1.9-3.1-2.6-5.8,2.7-.6,1.7-.2,3.4-.4,2.9-.3,14.4-6,17.1-7.3,2.8-1.3,4.7-2.2,6.9-1.2-1.1-5.3.6-3.1-5.3-6-11.5-5.7-4.7-3.4-28.7-1.2-2.1.2-4.2.2-5.8-.5-1.4-.6-2.1-1.6-2.9-2.8-12.1-17.3-5.6.4-8-18.3-.4-3.5-1,0-1-4.2s1.5-8.1,2.6-11.5l.5-1.8c.7-2.1.6-1.6,1-2.5,0-.4.4-1,.4-1.4s0-.8.2-1c2.9-17.4-9.2-16.1-3-27.8h-4c-.2,3-.5,5.4-3.6,5.9-2,.3-3.7-.9-5.3-1.9,2.5-3.7,3.2-1.3,3.2-7.3,3.7-.3,1.4.9,3.2-1.6-.5-2-2.2-4.5-4.2-5l-2.7.3c-.7,0-2.6-.2-3.6-.2,3.4,5.1,2.7,1.9,7.3,4-.8,1.9-.6,2.1-2.3,3.3-4.7,3.3-3.5.7-9.8.7.8,3,.8,1,1.6,4-2.3,1.6-1.6.8-3,1.5-1.7.8-.3.2-1.6.9,0,0-.3.2-.4.2-2.3,1.1-5.8,1.7-7.8,2.1-3.5.7-4.7,1.7-8.9,1.2-2.3-.3-2.4-.6-4.9-.2-9.2,1.7-8.2-5-12.7-14s-.5-1-.7-1.6l-2-4.6,3.2-2.4c-3.2-.7-2.8.5-4.5-1.9-2-2.9,0-3.4-4.4-3.7.4,1.8.8,1.9.8,4,0,4.5.2,2.4-1.2,5.3-1.1,2.2-4.3,5.6,1.2,6v-6.5c2.1.6,1.4,0,2.9,2,2,2.9,12,23.1,3.7,17.5-5.2-3.5,4.8-1.6-15.4-11.5-2.1-1-3.6-1.3-5-3.1.9-3.5.8-1.3,2.2-3.5,1.5-2.3,3.8-9.2,5.3-12.4l2.2-4.3c1.7-3.1,1.7-1.5.8-5.6-6.8.2-2.9,2.1-8.5,14.9l-2.7,6.2c-.9,2.2-.5-1-.9,3.1-3.8,0-4.1-.2-6.8-2.1l-4.9-3.9c-1.5-.9-2.2-1.1-3.6-2,.2-2.7.7-3.4,2-5.3l1.6-2.5s0-.3.2-.4l7.3-12.9c0-.2.2-.4.3-.5l1.5-2.6c1.7-3.1,3.9-6,4.2-9.6-2.3.8-3.5,4.1-4.7,6.6l-5.3,10.2s0,.3-.2.4c0,0,0,.3-.2.4l-1,2s0,.3-.2.4l-.8,1.6c0,.3-.3.6-.6,1.2l-5,8.6s0,.3-.2.4c0,0,0,.3-.2.4-1.3,3-.8,3,0,4.1,4.5,6.1,0,3-.2,13.8-3.8,0-4.2-.9-7.3-2.4.5-1.1.6-1.5,1.2-2.8,1.3-2.9.4.3,1.2-2.8-2.6,1.1-1.8,2.8-4.8,4.8-2.6-.7-.8-.4-1.7-.7-9.6-3.4-1.6,1.4-8-8.2-1,1.8-.6,3.2-.8,5.7-2.9-2-1-.6-3.9-1.7-4.3-1.6-3.1-5.9-8.3-6.5l4.2-4.7c-6.3-1.5-1.9,1-7.3,2.4-2.3-1.7-.7-.8-2.1-2.8l-3.3-5.5c-2.1-3.3-3.7-4.9-5.2-8.9-.9-2.5,1.4-.3-1.2-2.2-2.7-1.9,1.1.8-2.7-.8.3-4.2,0-.9.9-3.1,2.4-5.8,8.2-10.7,8.8-17.1-2.7,1.4-3.1,2.2-4.3,4.7l-7.3,12c-2.6,3.8-2.1,2.2-6.2,1.8,1.3-1.9,4-3.4,1-3.5-3.7-.2-2.1,1.9-5.1,1.9s-1.6-.5-4.9-1.5c-12.4-3.9-16.7-9.3-20.9-9.9-2.6-.3-4-.4-2.9,1.5,0,0,.9,1,1,1.2,1.4,1.4,1.5,1.3,2.9,2.1.8.5,2.7,1.3,3.3,1.6,4.5,1.9,13.6,6.3,17.6,7.4-1.4,2-3.2,2.9-5.1,4.6l-3.4,3.1c0,0-.3.3-.5.4,0,0-.3.3-.5.4,0,0-.3.2-.5.3-1.1.7-2.8,1.2-2.9,1.2-3.9,2.2.4,5.3-6.7,5.3,0-4.9.3-3.2.7-4.2,0-.3.7-1.6.8-1.7.4-.7,5.5-4.8.2-6.2,0,6-1.6,4.4-3.2,8.9-5.5-1.3-3.1-3.9-10.9-3-4.1.5-4.6.6-7.5-3.7-1.3-1.9,0-.5-1.8-2.2-5.5-5.8-5.4-7.3-9.7-13.7-3,1.1-.7.5-2.2,1.1-1.4.5,1,.2-1.9.5-1.1-1.7-2.4-2.8-4.1-4,0,0-.3-.2-.5-.3l-8.4-6.1c-2.6-1.8-1-2.1-4.8-2.5,4.6,6.8,19.1,12.6,23.7,21.5,5.4,10.3,2.8,8.1-5.7,6.4-5.4-1.1-11.5-4-17.2-4.5,3.7,5.5,13.3,5.4,19,6.8l7.4,1.5c3.5,1,2.8,5.2,5.9,6.3,0,5.6,0,3-2.4,6.5,4.5-.4,3-3,6.5.8-.7,1.1-1,1.7-2.2,2.4-.7.5-.7.3-1.3.5l-1.5.3c-4.7.9-7.9-1.2-10.9-3.5l-4.4-2.9c-1.2-.7-.2-.2-1.4-1-4.5-2.9-7.9-6.3-12.2-9.6l-3.8-3.4c-1.9-2-2.3-3.1-5-3.8.3,2.7,1.8,3.5,3.6,5.3,1.9,1.9,2.2,2.8,4.5,3.6-.3,3.1-3.1,7.2-5.7,8.9-.6-2.6-.9-2.5-1.7-5.6-.5-2.2-.6-3-1.5-4.9-3.1,2.1-2.5,1.2-1.6,4.4,1.5,5.5,2,12.3,2.4,17.4-5.3-3.5-1.9-1.8-8.1-1.6.8,3,3.4,4.3-2.4,4.8l-1.9-4.5c-1.7-3.4-1.4-3.6-6.1-3.6,2.8,4.2,8.6,9.7,4.7,11.1-1.4.5-2.4,0-4.3.7-3.9,1.1-3.1,1.9-6.4,3.3-3,1.2.5.8-3.7,1.1-1.9-2.9-1.3-2.8-2.4-6.2,0,0,0-.3-.2-.5,0,0,0-.3-.2-.4,0,0,0-.3-.2-.4-1.4-3.8.2-7.7-.6-11.6l-3-9c-1.9-4-3.4-8.8-4.6-13.2-.8-2.9,0-3-2.5-4.7-1.2,2.8.3,5.2,1.7,9.6.5,1.6,1,3.5,1.9,5.4,7.2,15.8,4,6.3,5.2,22.1.3,3.3.6,2.9.8,5.7-4.2-.5-.7,0-2.4-.9-6.3-3.4-8.1-5.2-4.1-13.7-2.5.2-3.3-.2-3.9,1.4l-1,5.1c-3.8-.3-7.3-5.1-11.3-7.3.6,2.7.7,2,1.9,3.8s1.5,4.3,2.2,6.7c.6,2,1.7,2.9-1.6,3.2-.9-2.5-7.5-8.5-9.9-10.2-1.6-1.2-1-.5-2-1.2l5.1,7.8c2,2.2,3.7,4.4,6.9,4.4-1.9,3.5.6,3.7-3.2,4v2.4c3,1.2,1.9.5-1.9,7.9l-2.1,4.2c-3.5-.3-5-1.7-7.3-3.2,1.9-4,5.2-11.2,3.2-15.3-4.8,2.5-2.8,6.2-4.2,10.4,0,0,0,.4-.2.5,0,.2,0,.4-.2.6-.3,1.1-.3,1.6-.6,2.7-1.6,5.8-4.2,3.5-7.8,1.1.3-3.5,0-1.5,1.6-4-1.7-.8-2.1-.5-3.2-1.6-3.1-3-5.7-9.3-7.7-13.3l-8.9-16.2c-4.5-8.8-4.6-3.3-2.8-10.9-1.2.8-1.4,1-2.9,2-2.7,1.7-.6-.9-2.8,2.1.8,3.1,3.8,5.1,4.8,6.9l7.6,13c1.1,2.2,1.8,4.1,3,5.9l3.1,5c2,3.9,3.9,7.6,5,12-6.6,0-15.6-1-21.8-2.4-1-4.7.4-.4.8-5.7-5.5,1.5.4,5.5-5.9,5.1-3-.2-8.4-2.3-10.3-.4-2.7,2.7,4.5,2.1,4.7,2.1,3.2.2,3.8,1.1,8.3,1.2v16.1c0,3.7,1-.3,1.2,3.4.2,2.1-1.4,5.8-.9,10.1.4,3.1-.4,6-.4,9.1-4.9,0-5.2,1.6-8.8,1.5l-15.2-.2c-3.3,0-6.3-2.5-7.5,2,8.1,0,13.3.2,18.5.9,5.5.7,7.8-1.5,13.8,0,1.4,3,0,2.3,2.2,5.1l5.5,5.8c1,1.1.5.6,1.8,1.4,2.6,1.5,3.1,0,3.4,3.9-5.7,0-1.5,1.5-7.3,1.6,1.3,1.9,1.7,1.8.9,3.5l-3.8,3.2c-1.2,1-1.5,1.3-2.5,2.4-7.2,7.3-9.2.4-10.7,13.6-.4,3.5-.4,2.1-2.5,2.3l-3.7,2c-10.1,3-1.9,5.6,3.8,2.9-.5,6,.3-.7-2.4,3-1.2,1.6.2.8-1,3.2,0,0-.2.4-.3.5l-1.7,1.6c-6.2,4.5-2.8,1.5-4.4,5.3-5.1-2.4-3.2-1.1-7-6.8-3.4-5.1-2.8-12.8-3.5-17.5-.6-3.8,0-7-2.5-8.8,0,12.2,3.6,16.6-.8,17-.3-3.2-2.7-5.7-4.1-8-3.4-5.4-5.6-8.8-8.3-14.3-1.8-3.7,0-.4-2.7-3-1.7-1.7-1.6-.9-1.8-3.8-2.5,1.8-.4,1.9.7,4.9.7,2,1.2,2.9,3.2,5,3.6,3.8,6.5,9.1,9,13.6,0,0,.2.3.3.5,0,0,.2.3.3.4l3.9,6c.6,1.1,0,.4,1.1,2,2.7,4.2,3.2,9.4,5.3,14,0,.2.2.4.3.5l2.3,5.8c0,0,.2.4.2.5.7,1.9.9,0,0,2.4-1.3,4.2-3.9,3.2-5.5,5.1-2.6,3.1,3.6,1.6-.7,3.3-2.4.9-7.6,0-11.6,6.1,1.3.7,2.2,1,3.7,2,1.4.9,1.5,1.2,2.8,2.1.2,0,.4-.3.5-.3s.4-.3.5-.3c1.6-1,2.3-1.6,4.1-.5,1.4.9-.4,0,1.4,1.1,1.4-2.1.4-1.7,3.2-2.4,0,6.3.4,7.8.4,10.7l.4,9.5c-4.2-.4-3.1-1.3-4.9-4-2.1-3.3-1.5-1.7-4.8-3.2,1.1-2.4.8-2.3.8-5.7l-1.5,6.8c-2.2,6.9-.3,8.9-4.8,10.5-.7.3.6,1-1.4,0-2.3-1,.3-5.6,1.2-6.9-7.7.6-4,2.5-4,10.5-1.8.8-3.2,1.1-5.3,2-4.1,1.8-5.8,4.9-8.5,6.1-2,1-2.3.3-4-.9-2.1,4-4.2,4.1-8,6.5l-4.3,3c-3.6,3.1-11-.7-15.9,2.6,1.5,2.1,2,1.4,4.7.7,8.3-2.1,2.4,4.1,14.9-3.7l4.8-2.7c3.3-1.3,2.4-.7,5.5-1.3l2.6-1.5c.5-.4,1.2-1.1,1.3-1.2,0,0,.3-.3.5-.4l5.2-3.7c2.8.7,1.6,1,3.5,1.7,4.1,1.7,3.8,1.5,4.1,6.4.2,2.4.9,4.8.6,6.5-.3,1.8-1.9-.5.3,2.6.3.4,1,.7,2,2.1-1.8.8-3.6.6-5.4-.2l-1.1-.6c1.2,3.3,4.9,3.2,7.3,4.8-2.3,0-21.2-1.8-17.1,3.5,2.6,3.3,3.4-3.4,8.2,3.8,3.7-2.5,4.7-1.6,10.5-1.6l-5,7.5s0,.3-.2.4c0,.2-.3.6-.4.8l-.7,1.6c-.3.7-.8,1.7,1.3,2l1.6-.4c12.2-3.4,9.5-1.3,18-.6-2.3,4.8,3.4,4.7-.2,5.9-2.3.8-3.2-2.9-3.3-3.2-.7-.9-.5-.6-1.3-1.1-.4,4.7-1.3,5.4,2.6,9.5,2.2,2.4,8.2,6.4,6.4,10.4l-.7,1.2c-1.1,2.2,0,.3-.9,2.1-.5,1.1-.5.9-1,1.8l-2.3,3.4c-1.4,2.2-.9,3.7-1.7,5.5-3.7-2-1.4.5-2.9-2.9l-6.4-15.3c-1.1-2.8-1-4-3-6.6l-2.3-3.4c.2,2.8.4,1.9.8,3l4.8,12.1c.4.8.5.9.7,1.2,1.8,3.4,3.4,8.8,4.3,12.2,1,3.5,0,5.7-1.9,9.3l-1.1,2c-.7,1.2,0,.2-.9,1.5-2.7,4.7-2,3.9-1,8l-3.8,1.9c-9.1,4.4-6.2,3.8-10.1,2.2-5.8-2.3-5.3.8-1.6,3.2l8.4,4.9s.3,0,.4.2l3.6,1.9c.2,0,.4.2.5.3.2,0,.4.2.5.3l7.4,5.5c.8.6.9.9,1.7,1.5,3.3,2.9,4.9,3.9,8,3.1,4.3-1.1,11.7,0,15.7-.7,12.8-2,11.6,1.4,18.2,11.5,2.2,3.3,2.4,3.3,2.2,6.3l-.6,9.1c0,.2.2.6.2.8,2.2,8-4.8,18.7-6.8,28.9-.8,4.2.2,7.3.7,11.2l2.8,11.4c2.5-1.8.6,0,1.4-1.8l-.5-2.6c-2.1-3.1-2.3-10-2.5-13.3h3.2c-.8-3.1-1.6-2.3-3.2-4.8.9-4.1,4.2-8.6,4.5-12.3,0-1.3.2-1.4.4-3.9,2.6,1.8,1.9,2.9,2.4,5.8.5,3,.3.9.3,3.8s0,1.6.5,3.5c.8,3.9,0,5.6.5,8.9.2,1.4.7,1.8,1.2,3.8,4-2.7,4.8,0,7.4-3.9l1.8-3.1c.4-.8,0,0,.7-1.3l2.4-3.6c2.2-2.8,1.7-4.2,4.7-5l1.6,9.8c1.2,3.7,2.4,5,2.3,9.5l-.2,1.6c-.7,2.4-2.8.7-4.8,1.3-1.8.5-2.1,1.2-1.8,2.9,0,.4,1.5,3.6,2,4.7-4.4.4-2.4.7-4,4l7.5-2.4c7.1-2.6,3.5.7,8.1-1.4,2.1-1,6.5-.7,8.5,0,1.5.6,1.2.6,3.1.2,7.8-1.6,7.2.3,8.1,3.7l1.8,5.8c.3.9.8,2.2,1.3,3.2,1.6,3.4-.9.7,2,2.9,2.4-2.2.7-5.8-.7-8.7-1.1-2.3-1.9-4.4-.9-6.6,6.7-2.8,2.5,6.3,12.3,11l2.1,1.2c1.2.8,2.3,1.5,3.4,2.3,1.8,1.3,5.6,2.7,5.6,4.8,0,4.8-2.6.7-4.3,7.6-.6,2.5-4.1,9.5-5.7,11.6l-.5.6c0,.2-4.1,7-3.3,8.5,4.1,6.8,6.3-5.7,6.8-7.8l4.9-10.4c.9-1.7,1.3-2.6,2.1-4.3,3.1-6.2,4.2-3.7,8.2-.3l5.1,4.5c5,3.5,2.6,1.1,2.6,4.7l.9.7c1.8-2.7.6-1.8,1.6-3.5,1.3-2.2,4.3-4,5.5-6.4,0-.2.2-.4.3-.5l2.2-3.9s.2-.3.2-.4c0,0,1.2-1.6,1.3-1.7,2-1.9,2.4-1.3,4.5,0,2.5,1.4,3.7,1.4,4.6,3.5.9,2.1-2.5,14.8,2.4,12.1-.9-1.8.6-9.2,1.6-11.3,3.5,1.7,4.9,1.5,7,5,1.1,1.9.2,1.3,1.7,3.2,1.2,1.5,1.5,1.3,2.6,3l-11.3,7.2c-2,1.3-3.1,2.2-5.6,2.5,0,.3.2,2,.2,2v.9c0,0-.3.2-.4.5l.9.7c1.3-1.8,3.2-2.5,5.5-3.6l.8-.4s.3,0,.4-.2l3.1-1.7c.4-.3,2-1.6,2.6-2l5.6-3.7c1.7-.8,0,.3,2.2-.6.7,1.4,1,2.5,1.8,3.9l2.6,5.6c.2.5.2.2.6,1.2,1.7,4,3.2,13.1,8,13.5,0,6.2-.5,2.8-2.6,6.7l-4.5,7.3c-1.8,3.2-4.1,5.8-5.1,9.5,2.8-.8,4.2-2.7,5.1-5.4.6-1.7.5-.4.5-2.7,3.9-.3,1.2.4,2.3-1.4,1.5-2.5,5.6-10.5,8-11.5,1.2-.5,2.7.2,4.3.8-1.3,3.5-1.2.7-1.6,4l5.2-1.9c2.5-.7,2.1-.4,4.3,1.2,1.6,1.1,5.3,2.1,7.8,3.5,4.6,2.6,12.3,10,14.8,10.5,1.3.2,2.9,0,4.3-.4-2.3-4.3-5.1-6.4-9.6-8.3-2.8-1.2-4.4-2.8-7-4.3l-5.9-2.9c-1.7-1-1.7-1.2-3.4-2.3.9-1.2.5-.7,1.5-1.7l1.3-1.1c1.3-1,2-1.4,3.3-2.4,2.5-1.9,3-3.4,5.7-4.8,5-2.5,1.6.9,4.8-4.8.8-1.5,1.3-2.4,2.6-2.4,5.3,0,.2,8.1,0,9.9-3.7.3-1.2,0-1.9.7,0,0-.3.6-.4.8-.6,2.6,0,2.3,1.5,3.3,2.1-4.4,2-8.3,6.5-11.3M266.4,38.8c2.4,3.6,2.3,2.8,3.2,2.4.5-1.4,1.1.7-.2-1-1.2-1.6-.7-1.2-3.1-1.5h0ZM265.6,37.1c0,.6-.7,1.4.9,0,.6-.5-1.3-2.1-.9,0ZM265.6,36.3c-1-1.5-1.2-1-1.1-2.4l8.9-8.4c1.7-1.2,3.1-2.4,4.8-2.4h1.3c.4,0,2.6.3,2.9.4,2.6.8,2.6.9,1.7,2.9l-3,4.3c-1.1,1.8-1.3,2.5-1.8,4.7h-2.4c-.8-2.8-.3-1.8-2.4-3.2.4,5,2,2,2.9,5.9,1.4,6.3-4.7,3.6-7.8,4.4-.6.2-1.1,1.1-2.9.4-1.6-.6-1.7-1.4-6-3.2,0,0-.3,0-.3,0s-.2,0-.4-.2l.9-3.2c3.5-.7.9-.3,4.8,0h0ZM283.4,37.1c-.5-2.4-.9-3.6.3-6.1,2.7-5.8,2.8-4.4,5.3-4.4-1.1,4.7-3.1,6.6-4,10.5h-1.6,0ZM231.7,26.6c2.8.8,3,.7,3.2,4-2.6-1.4-2.9-.3-3.2-4ZM242.3,37.7c.4.8,1.7,4.9.7,6.7-4.3-1.2-2.3-2.4-4.7-5.8-1.5-2.2-3.1-2.9-3.4-6.3,2.8.6,6.3,3.2,7.4,5.4ZM248.3,36.8c-3.2-1.9-2.5.2-2.8-3.7,3.2,2.2,2.7,1.1,4.4,2.1,1.2.7,2.5,1.9,1.5,2.9-1.9,1.9.5.7-3.1-1.3h0ZM253.5,37.9c3.8.3,3.8,2.1,0,2.4v-2.4ZM247.7,45.4l-3.1-3.4c1.9-2.3,6.1.4,3.1,3.4ZM262.4,44.4c-3.8,0-4,0-4.8-3.2,3.8,0,4,0,4.8,3.2ZM292.3,38.8c3.9,1,.9,1.4,4.8,2.4v1.6c-3.3,0-2.6-.3-4.8.8v-4.8ZM206.7,36.3c6.8,4.6,8.3,6.4,16.8,10.4,1.8.9,2.8,1.1,3.8,2.3,1.2,1.5-.3-1.6.5,1-10.2,2.4-5.4.3-11,2.7l-7.1,1.9c-6.8,1.3-6.5,0-6.8-2.6l-.2-3.7c0,.2-.2.5-.2.6-1.3,3.7-.5,3-2.2,4.2-.3-4.1-.8-4.5-.8-10.5,2.8-1,0,.4,2.9-2,1.8-1.6,3.2-2.6,4.4-4.5v.2ZM270.5,53.3c-1-3.8-1.3-.7-1.6-4.8h2.4c3,0,3.4,3.7-.8,4.8ZM262.4,50.1c3.7.9,2.9.2,3.2,3.2-3-.2-3-.3-3.2-3.2ZM293.9,53.3h-2.4v-2.4c2.4.6,1.8,0,2.4,2.4ZM304.4,56.5c-2.9-1.9-2.4-1-4-4,3.8,0,3.7.5,4,4ZM231.7,56.5h2.4v-1.6h-2.4v1.6ZM241.4,54.1c-.3,3.5,0,1.5-1.6,4-3.9,0-1.8-.5-3.4-1.4-3-1.7-.9,2.8-.9,2.4s.2.4.3.6c-1.7,0-2.9.2-4.6-.3-.2,0-.4-.2-.6-.2-6.9-2.4-6.4-.6-7.2-3.4-1-3.3,1-2.2,4.5-3.1,3.5-.9,2.6-1.1,7-1.1v3.2c3.7-2.5,2-1.9,6.5-.8h0ZM347.2,50.1c.2,0,6.9,1.5,7.3,6.5-5,1.8-2.4,6.5-10.5,6.5v-1.6c-2.9-1-1.6,1.8.2-5.8.4-1.6-.3-5.5,3-5.5h0ZM218.8,58.1c-3.6-2.4-3.1-.8-4-3.2h6.5c-.7,2.1-1.3,1.7-2.4,3.2h0ZM253.5,63c-.5-2.1-.7-2.4-1.6-4,3.9.3,5.6.7,6.5,4h-4.9ZM281,63c-.9-3.7-.2-2.9-3.2-3.2,0-2.3,0-3.2,2.4-3.2,4.5,0,4.8,4.8,4.8,4.8-2.1.5-2.4.7-4,1.6h0ZM204.3,58.1c8.8,4.2,13.7,1.9,13.7,8.1s-4.2,2.6-7.2,2.4l-5.2-.2c-3.7-.3-3.2-7.5-1.3-10.2h0ZM225.4,62.9c-.5-.2-1.1-.4-1.7-.7.3-1.9,3.2-1.4,4.7-.8,1.9.8,3.1,2.3,4.2,4-3.6-.3-4.1-1.2-7.2-2.5ZM273.7,59.7c3.7.9,2.9.2,3.2,3.2-3-.2-3-.3-3.2-3.2ZM362.2,69.2c-4,.8-.9,1.7-4.5.3-2.4-1-6.2-3.7-5.2-6.6l6-6.3c1.7.4,3.3,1.4,5,2.3,6.3,3.2,10.1,4,12.8,9-7.3,3.9-9.1.3-14,1.3h0ZM158.3,65.4c-3.1-1.4-2.2,0-4-2.5,1.8-2.1,6.6,1.2,8.1,3.2-2.1.9-1.6.3-4-.8h0ZM197.8,67.8c-4.2,2.8-4.2,4.8-6.7-2.2-1-2.9-1.4-.8-1.4-3.5s7.6-1.9,8.9-1.6c1,4.1.7,6.9,2.4,10.5-3.1-.3-2.4.5-3.2-3.2ZM171.2,65.4c2.7-1.3,3.6-1.1,7-2,3.9-1,2.3-1.5,5.2.4-1.8,2.6-3.2,2.5-4,5.7-2.3,0-1.9,0-4-.9l-1.1-.5c-2.6-1.4-1.5-.3-3-2.6h0ZM416.6,67.8c0-1.4,3-2.4,4.7-2.7,2.3-.4,1.9-.4,3.4,1.9-6,2.9-8.1,4.2-8.1.8ZM166.3,70.2c.5,2,.8,4.8,1.6,6.5-14.8,7.1-12.1-2.5-12.2-3.9-.4-3.3-1.2-2.2-1.5-5.8,3.6,0,3.4-.2,4,2.7v1.3c1.6.5,1.8-2.2,8.2-.8h0ZM432,68.6c-.2,2.2,0,1.8-.8,3.2-2.5-1.7-1.3.4-1.6-3.2h2.4ZM206.7,71.9c3-.2,3.1-.3,5-.8,3-.7,1.8-.8,4.7.8-3,4-6.5,4.7-9.7,0ZM176.8,75.9c-3.1.3-2.1.7-5.7.8-1-3.8-1.3-.7-1.6-4.8h5.7c.7,1.9-.5,1.1,1.6,1.6v2.4ZM218,76.7c.7-2,3.7-2.9,5.8-3.9,2.7-1.3-2.3-.9,4.7-.9-.3,3.7-.7,2.2-2.4,4.8-5.5-3.7.2-.2-8.1,0ZM411.8,73.5c3.2,0,4.3.2,7-1.1,3-1.4,2.1-.7,2.7-2.2h5.7c.7,3.1,1.8,3.5,1.1,5.4-.3.9-.5.8-.8,1.3-1.6,2.6-7.9,13.1-8.4,15.1h-2.4c-.4-4.6-.4-.2-1.2-4.2-1.7-9-3-7.1-3.6-14.4h-.1ZM409.5,82.2c.4,1.3.4.4.6,2.6-3.2-.8-2.8-1.2-5.7-3.2-2.4-1.6-1.6-.4-2.9-2.9-2.1-3.9,2.2-3.6,4.6-3.6l3.4,7.1ZM379.5,79.1l.2.2-.2-.2ZM369.8,78.3c2.2-2.6,1.5-.8,10.5-.8.4,1.5.2,1.3.8,2.4,1.9-1.3.8-1,3.2-1.6.4,1.5.2,1.3.8,2.4-.7.5-1.9,1.6-2.4,1.6l-12.9-4ZM438.4,68.6c.7,7.7,6.5,12,0,12.1.8,2.9,0,2.2,3.2,2.4-.6,7.8-3.2,7-3.2,15.3-1.2-.8-1.4-.9-2-2.2-1-2.4-2.8-12.1-3-14.5-.4-4.2-5.2-6.3,5-13.2h0ZM400.7,82.8c.5,1.6,0,2.4,1.4,5.2-3.8,1.6-4.7-.8-6.3-4.2l-2.6-4.7c2.6-1.8,1.2-2.1,4.8-2.4.7,3,1.8,3.6,2.6,6.1h0ZM143.7,80.7c.6-1.3,1-2.5,1.7-3.9.9-1.8.7-2.2,2.3-3.4,0,4.2.9,4.8,1.6,8.1-3.4.7-3,1-5.7-.8h0ZM345.6,83.2c-2.5,1.1-2.5,0-7.3,0,2.2-3.4.5-1.2,1.6-4,2.2,1.1,4.3,2.1,5.7,4h0ZM157.4,84.8c.9-3.3.6-1.9,9.7-4-1.1,4.8-.4,1.9,0,6.5-7.1-.6-4.2-2-9.7-2.4h0ZM171.2,88c.7-2.7,7-8.9,9.7-9.7,3.7-1,10.8,2.1,12.9,4.9-7.3.6-4.6.7-9.8,1.5-11.8,1.8-7.2,6.5-12.8,3.4h0ZM432,102.5c0,9.7-1.6,6.5-5.8,1.8-3.3-3.6-5.5-6.1-6.3-9.1,3.2-4.8.8,1.2,5-7.9.8-1.6.2-.3,1.1-2,1-1.9.5-1.9,1.7-3.2.9-1,1-.9,1.8-1.4,2.7,4,1.8.9,2.1,5,.7,9.5,2.8,9.8,3.6,19.2-3.2-1.2,0,0-3.2-2.4h0ZM93.7,93.7c0-3.8,0-7.7,0-11.4,0-8.2,3.7-4.8,8.1-4.2,1.2,0,3.4,0,4.8.4,3.4.9,0,.4,6.6,3.9.9-2,0,0,.5-2.1,0-.5,0-.7.3-1.2,1.2.5,2.4.6,4.8.8v2.5l-4.8-.9c.9,2.1-1.7,1.5,3.2,1.6v2.4c-4.3.4-.5.2-6.5,2.3l-11.8,3.7c-3.8.8-3.4,1.5-5.1,2.1h0ZM133.2,83.2c-.3,3.7-.7,2.2-2.6,5l-3-3.4c.7-.6,1.9-1.6,3.2-1.6h2.4ZM403.7,84c3,1.6,3.8,2,5.5,4.7l-1.5,1.8c-4-2.1-4.8-2.9-4-6.5ZM137.3,88c3.9,1.4,1.6,2.4,1.6,2.4-1,.5.4.9-1.2.2-3.4-1.5-.4-1.4-.4-2.7h0ZM141.1,90.8c-.7-1.8.7-5.2,3.4-5.2,4.4,0,3,.8,6.5,1.6,0,8.7-.5,4.8-4,4.8s-4.6,2-5.9-1.2ZM94.5,95.3c2.1-1,4.5-1.6,6.2-2,0,0,.3,0,.4,0l5-1.6c.2,0,.4-.2.6-.2,1.3-.5,1.1-.6,3.2-1.2,2.4-.7-.7.4,1.3-.4,3.6-1.3,2.5-1.8,7.4-1.7l.9,3.2c0-.2.2-.4.3-.5,0,0,.2-.4.3-.5,0,0,.2-.4.3-.5l1.5-1.7c.6,2.5,1,2.3,1.6,4.8-1.3,1.9-.8,1.1-2.3,2.5l-7.3,6.8c-1.2,1.1,1.1-.2-1.2,1.1-2.5,1.4-4-.3-6.9.9,1.5,2.2,1.3,2.5,3.2,3.2v2.4c-2,.2-8.3,5.5-11.8-6.4l-2.7-8.2h0ZM413.4,98.5c-2.7,0-1.5.2-3.4-.6-4.5-1.8,2.9,1.4-1-.6-.2,0-.9-.4-1.1-.5-2-1.1-2-1.2-3.3-3.1,2.8,0,3.5-.2,6,.5l3.8,1.1-.9,3.2h0ZM396.4,100.1c-3-1.1.5.7-4-3.3l-5.6-4.9c-1.1-.8-3.2-1.8-4.2-4.7,2.6.6,2.7,1.1,5.2,2.1,7,2.8,7.8-1,7.1,6.2-.2,2.2-.4.7.3,2.5,0,0,1.2,2.1,1.2,2.1ZM388,106c-2.6-4.3-3.6-3.4-2.9-5,1.1-.5-.9-1.7,2.2.9,2.4,2.1,5.2,2.2,6.7,7.9-2.8-.7-.3,0-2.3-.9-2.1-1-2.7-1.3-3.7-2.9h0ZM377.9,91.2c0-1.6.3-1.4.8-2.4,1.7,1.1,1.9,1.6,3.5,3,2.7,2.4,7.8,6.9,8.6,9.9-4.4-1.5.3.2-1.3-.9,0,0-.6-.4-1.6-1-5.5-2.9-10-4.3-10-8.6ZM426.3,116.3c-.7-1.5-1-2.7-1.9-4.6l-2.5-5.7s0-.3-.3-1.3c-.5-1.4-1.2-2.6-1.8-3.7,1.4.5.8.3,1.6.8,0,0,.3.2.5.4l6.1,6.9c2.4,2.5,3.7,3.7-1.7,7.3h0ZM139.7,105.8c1.3-1.9,2.6-3.9,5.3-4.3,3.2-.5.5,1.8,0,2.3-1.2,1.4-.9,1.1-1.3,2.8-3.2,0-1.9.2-4-.8ZM136.5,100.1c1,2.1.8-1.1.8,6.5-4.5,0-2.9-.4-4.8-4,2.3-1.6,1.2-1.7,4-2.4h0ZM378.5,102.1c.9.5,1.8-.3,3.4,1.3.3.4,1.4,2.6,1.7,3.2-1.8-.2-1.4,0-3.3-1.5-4.6-3.7-3.4-4.5-7.2-4.9.6-4.5,5.4,1.9,5.5,2h0ZM398.9,105c1.1-12.7.3-11.6,5.3-7.8,5.1,4,7.6,3.6,2.2,8.8-4.3,4.1-3.2,1.9-7.5-1.1h0ZM109.8,111.4c3.1-6.6,4.5-7.9,12.1-7.3-1.1,2.6,0,.8-.5,3.4l-.4,1.6c-1.4,4.6-8.3,4.1-11.2,2.2h0ZM94.5,115.5c-1.1-2.7,0-4,0-9.7,5.3,1.4.5,2,5,5.4,4.7,3.5,9.5,4.3-5,4.3ZM138.9,116.3c0-4.4-.5-3.7,2.4-5.7,1.4,3,0,1.9-.8,5.7h-1.6,0ZM144.5,115.5c.9-3.6.4-3.2,4.8-3.2v2.3s-4.8.9-4.8.9ZM403.7,114.7c1.6-2.4,7.2-8,8.1-10.5,2.3,1.7,1.6.7,1.6,4.8h2.4c.3,3.1.8,3.2.8,7.3-2.7.6-9.9.4-12.9-1.6ZM113.4,116.7c3.3-1.5-1.6-1.2,5.3-1.2,0,5.2-2.1,3.9-3.2,8.1-1.1-.8-4-4.4-4.8-5.7,1.1-.5,1.5-.6,2.8-1.2h0ZM95.3,118.7c9.9,0,11.3-4.6,16.6,5.2l1.2,2c-1.4,2.1-3.2,4.2-4,6.5-2.5-.2-2.3,0-5.2-2.1-3.7-2.5-8.2-7-8.6-11.6ZM419.9,125.1c-3.4,2.3-.9,2.4-6.5,2.4-.6-1.7-1.6-2.5-2.8-3.6l-2.8-2.8c-.9-1.4-.4,1.6-.8-2.4h10.5c.7,1.5,2,4.7,2.4,6.5h0ZM435.2,117.1c5.8,8.7,10.8,9.4,11.3,13.7-2.5,1.2-9.1,0-13.7,0-2.2-3.2-2.4-1-2.4-6.5s0,.4.9-2.6c.8-2.3,1.3-2.9,3.9-4.6h0ZM152.6,120.3c-.4,1.5-.7,3-2.6,2.9-1.8,0-1.3-.8-1.4-2.9h4ZM157.5,123.8c-.3,1,0,0-.9,1.4,4.2.5,1.5-.9,2.4,1.6-3.5.7-1.4,0-5.7,0v-1.6c2.9-.7,2.6-.4,4-2.4.5,1.2.5-.5,0,1h0ZM122.7,130c2.9,2,6.6,6.7,0,7.3-1-4.2-2.1-2.5-2.4-6.5,1.4,0,.9.4,2.4-.8ZM447.1,137.1c-5.9-.4,1.5-.8-4.6-1.5.2-1.2,1-1.6,2.4-1.6,6,0,5.3-.5,7.3,2.4-1.8.9-.9.5-3.9.6h-1.2ZM479,137c-2.6-.2-.2-1-4.3-1.3v-1.6c4.3-1.7,5.2-.2,8.1,0v1.6c-2.9.8-1.8,1.5-3.8,1.3h0ZM457,139.7c5-2.4,1.4,1.5,9.7-4,2.4,1.7,1,.5,2.4,3.2,2.3-1.1,2.3-.6,4.8,0v1.6c-4.8.4-.9,1.5-6.5,1.6-.9-2.1-1.6-3-4-3.2,3.9,7.3-3,6-6.5.8h0ZM120.3,136.5c1.1,4.8,3.2,3.5,3.2,10.5-2.9-.3-4.3-1.7-4.5-5.1-.3-5.8-.6-4.1,1.3-5.4ZM427.1,146.9c-1.6-.6-2,.4-3.2-4h3.2c.3,3.8,1,1.6,0,4ZM95.3,154.2c2.5-.9,5.6-5.1,7.9-7.5.9-.9,1.1-1.2,1.9-2.1,4-4.5,2.6-2.1,5.5-3.3.4,4.3.8,5-2,9.2-.8,1.2-.9,1.3-1.6,2.5-1.8,3.3-1.7,6.8-8.9,4.7-5-1.5-.5-1.3-4.8-.9-1.9.2-.2.4-2.9-.2.3-3.8,2.5-5.1,5.3-6.9,4.7-3.1,1.5-4,6.9-5.3-1.4,2.1-2.8,3.2-4.7,5-3.5,3.4-1.3,1.6-2.6,4.6v.2ZM109,155.8c.3-4,0-1,.9-3.1,1.4-3.1,3.1-4.7,3.9-8.2h1.6c.5,6,1.6-.4,1.6,7.3-1.7,1.1-2.3,1.3-4.2,2.3-1.8,1-1.5,1.2-3.9,1.7h0ZM459.5,159.2c-5.9,1.4-3.6,2.1-5,.7-.8-.8-2.3-9.2-2.3-9.7v-3.2c6.1,0,8.1-.7,10.1,3.6,1.1,2.5,2.3,4.5,2.8,6.9-2.1,1-2.9,1.1-5.6,1.7ZM115.5,155.8h1.6v4.8c-4.1,0-2.3.7-4-1.6h2.4v-3.2ZM443.3,147.8l.2.2-.2-.2ZM445.1,152.8l-.2-.2.2.2ZM449.2,154.3c.2,1,.5,3.4.5,6.4-.4-.5-1-.4-1.2-2.2,0-.2.3-2,.4-2.6l-3.2-2.4c.4,5.2,2.1,1.3.8,7.3-1.4-.4-3.3-.8-3.9-2.1l-.6-2c0-.3,0-4.1,0-4.4,1.4-2.9,1.3-.4,1.3-.4,0,0,0,2.8,1,.6,0-.2.4.2.6.3-3-6.3-2.4-3.8-3.3-5.5-.9-1.6-.5.2,0-1,4.8-2.1-3.3,1.6,6.5.8,0,4.7.4,3.9,1.1,7.4v-.2ZM457,167.9c-1.2-1.1-3-2.7-2.8-3.9.3-1.3,8.4-5,13.3-1.8-3.9,5.8-6.4,3.8-8.9,3.2-.6,2.3.2,1.2-1.6,2.4h0ZM88.8,171.2c5.7-1.3,14.5-8.9,16.1-8.9,4,0,5.8-.5,8.1.8-.9,3.5-4.4,4.2-9.4,10-1.3,1.5,0,.3-1.5,1.7-1.2,1.1-.3.6-2,1.2.3,3.5,0,1.5,1.6,4,3.5-2.3,4-6,8.1-4-2.6,3.9-8.5,6.8-9.7,11.3h-2.4c-.8-3-1.1-2-3.2-4.9l-1.9-3c-1.7-2.6-1.2-1-2.7-3.8-1.4-2.6-1.1-.7-1.2-4.5h0ZM481.2,159.9c1.7-4.1-1.4.7.5-3.7.2-.4,5-4.9,8.4-5.2-.9,1.7-1.6,3-2.5,4.7-.2.3-.9,1.6-1.2,2-.2.2-1.2,1.6-1.5,1.8-2.7,2.4-6,1.4-6.1,7.6,3.1-1.2,1.8-4,3.3-2.5s.6-.5-1,3l-3.2,9c-.2.6-.5,0-.7,2.5h-3.2l-3.2-10.5c0-4.7,0-3.8,4.9-7.2,4.7-3.3,2.2-.3,5.5-1.7v.2ZM90.1,165.9c2.1-.6,1.7-2.7,2.8,1.3-3.2,0-2.2-.7-4.5,2l-1.1,1.3c-3-2-1.4-1.6-2.4-4l5.3-.5h0ZM110.6,170.4c1.1-1.5,2.1-2.4,3.9-3.3,0,0,1.4-.6,1.7-.7-.4,4.8-3.2,5-5.7,4h0ZM462.6,172c.6-2.3.8-2.1,4.8-4.8.4.6.7,1,.9,1.4.9,1.9-1.2-3,.4,1.2,0,0,0,.3,0,.4,0,0,0,.3.2.4,1,2.4,2,3.5.8,6.2-4.1-2.8-3.4-3.9-7.3-4.8h0ZM467.4,181.1c-.6-1.5-.4.2,0-1,.9-.4,0-1.6,4.8,1.6v5.7c-7.2-.6,3.8-1.4-4.8-1.6,1.5-6.3.8-2.4,0-4.6h0ZM106,186.8l-.2-.2.2.2ZM100.9,190.5c1-1.8,6.2-8.7,8.6-10,1.4-.7.2-.3,1.9-.5-1.5,6.5-2,2.4-2.4,7.3-5.9.5,2,1.5-5.5,6.3l-2.6-3.1ZM75.9,190.5c0-2.3.6-3.4,1.4-5,3.2-6.7,4.1-10.2,8.2-11.1.3,3.5,0,1.2.9,3.1l9.3,13.4c0,0,.2.3.3.5-1.7,2.6-3.9,5.5-5.7,8.1,3.1.3,2.3.6,2.1,2.5,0,1.1-.5,2.7-.5,5.6-3.5-2.3-6-5.6-9.1-8.7-3.9-3.8-2.9-2.3-2.2-10.7-1.9,1.4-2.2,2.5-2.4,5.7-1.3-.8-2.4-1.1-2.4-3.2v-.2ZM81.3,186.8c.5-2.4-.8-1-.5.5.5,2.8.5-.5.5-.5ZM95.3,204.3c0-1.3,0-2.6.2-3.8,0-.2.2-.4.3-.6,2.7-6.8-.4-4.3,2.6-5.3l1.7,5.6c-1.7,2.5-1.3,3.2-4.8,4h0ZM79.4,216c-2.6,1-3.6.9-4.4-2-1.1-4.1.5-3.6-.8-7.8-3.7-12.3-4-1.2-4-12.3,1.9.8.3,0,1.5,1,1.7,1.6,1.4,2.9,1.5,3.4l4.1,8.7c.3.6.9,1.9,1.3,2.7,1.1,2,1.9,3.4,2.8,5.2l-2.2,1.2h.2ZM488.5,202.7c2.9,0,.4-.5,3.4-1.4.6-.2,2.5-.4,3.2-.5,4-.7,1.8-2.5,3.9.3-3.9.9-2.9,2-6.8,2.9-1.7.4-2.4.3-4,.8-2.2.6-1.7.7-3.7,1.1-2.5-1.7-3.3-2.3-4-5.7,2.7,1.3,6.4,2.4,8.1,2.4h0ZM87.1,206.8c3.9,4.8,1.2,3.4-3.1,6.3l-2.1-2.8c-1-1.4-.3.5-1.3-2.5l-.7-2.2c-.9-1.8-1.5-1.1-1.6-6.2,2.5.7,6.7,5,8.7,7.4h0ZM73.5,217.2c0,1.7-1.3-.3-1.6,4h-1.6c0-2.2-.3-3-.4-3.9l-1.2-9.8h1.6c.2,2.9.6,1.6,1.5,4.9.5,1.8,0,.7.7,2.5,1,2.6,1-1.3,1,2.3ZM94.5,210.7c0-1.2,6.1-6.5,7.3-7.3v8.9c-2.6,1.8-1.9,2.3-5.7,3.2-.8-1.6-1.6-2.4-1.6-4.8h0ZM486.9,217.2c1.6,0,2.9-.9,4.2-1.5,13.9-6.6,10.9.6,4.1,4.2l-1.1.6c-1,.5,1.2,0-2.2,1-1.7.4-1.1.5-2.8,0-1.7-.6-4.8-2.9-5.5-5,2.3.5,1.4.8,3.2.8h0ZM90.9,217c0,1.1,0,.9-.4,2.6h-3.2c-.6-2.5-1-2.3-1.6-4.8,3.9-1.2.7-1.5,5.7-1.6,0,1.7-.3,3.3-.4,3.8h0ZM84,219.6c-2.4-.6-1.8,0-2.4-2.4h2.4v2.4ZM107.4,222c0-3.9.5-3.3.8-6.5,1.8,1.2,2.7,1.1,2.2,4.2-.2,1.7-.2,1.6-3,2.3ZM81.7,225.2c1.8,3.8,3,1.1,3.1,6.6h-2.4c-1.3-4.7-4.7-5.5-4.8-12.1,3.4.9,2.6,2.5,4.1,5.5ZM58.1,227.7c-3.2-1.2-3.4-3-2.6-3.7.9-.8.4-.2,1.8-.4.4,1.8.6,1.9.8,4h0ZM74.3,235.8c.3-3.9,1.6-3.7,2.4-7.3h1.7l-.8,5,2.3-1.7c0,4,0,3.3-1.6,5.7-3-.8-1-.8-4-1.6h0ZM84.6,244l-4.7-5c.5-.5,1.6-.9,2.8-.4,0,0,.4.2.5.3,0,0,.3.3.4.4,0,0,.2.3.3.4,1,1.2.7,2.7.6,4.4h0ZM53.3,251.9l.2.2-.2-.2ZM51.7,233.3c4.9-.5,0,.2,4.2-2.3,2.3-1.4,1.1-1,4.7-1,.6,2.7,1,2.4,1.7,5.5,2.8,12.8-1.3,6.7-.2,12.4.6,3,.2.7-4,6.2-2.5,3.2-1.3,3.4-4,4.1-1.2-2.2.4-2.8-.8-5.7-3.2,2.3.4-.5-1.3,2,0,.2,1,1.8-.9.7-1.7-1-.8-2.1-1.3-4.8l-1.3-9.1h2.4c.2,2.5.9,3.9,1.2,5.4.2,1,.4,2.9.4,5.1,1.3-.8,2.4-1.1,2.4-3.2l-2.9-10.7c0-.6-.3-2.8-.3-4.6h0ZM81.5,248.7c-2.2-.2-1.8,0-3.2-.8.3-1.7,1.3-1.5,3.2-1.6v2.4h0ZM487.7,254.3c-3.3,0-2.6.3-4.8-.8,1.1-2.1.8-1.8,3.2-2.4.6,2.4.3,1.3,1.6,3.2h0ZM57.3,260c.7-2.6.7-2,2.6-3.9,7.7-7.7,2.4-1.7,6.6-3.3,2.8-1.1-.4.4,1.6-1.4,1.3-1.2-.7-.3,1.4-1.1.9,1.9.5,1.9,1.8,3.8,2.1,2.9,2.1,1.5,1.4,4.3-5.1,1.1-4.3-.8-10.5-.8v2.4c4.2.5,1.5-.9,2.4,1.6-6.3,0-2.5-1.2-7.3-1.6ZM50.9,265.6l.2-.2-.2.2ZM490.9,268.9c-2.3,1.1,1.5.8-4.8.8s-2.3-2.6,0-2.9c1.5-.2,3.3.2,4.7,2.1h0ZM506,273.6c-2.6-.7-1.6-.4-3.8-4.7,1.2-1.2,1.8-1.4,4-1.6.3,1.3.5,2.5,1,3.9.6,1.8,2.3,3.4-1.2,2.4h0ZM53.3,277.7c2.6-3.8,1.8-2.2,4.7-3.4,6.2-2.5,1.8.5,7.5-2.1,1.1-.5,1.3-.5,2.3-1l2.3,2.5c2,2.4,3.3,5.3-.5,3.9-12.7-4.7-2.2-1.1-16.3,0h0ZM488.5,273.7c-.2,2.4-.6,4-3.2,4s-5.7-4-.8-4h4ZM497.9,275.8c6.9-1.4,10.7,7,4.9,6.4l-4-.9c-2.7-.8-3.8-1.6-7.9-1.9v-4c4.9-1.9,2.2,1.6,6.2.8l.8-.3h0ZM512.7,283.4c-2.4-.2-2.7,0-3.5-2.1-.6-1.5-.3-.6,0-1.8,0-.9,0-.3.5-1,3.1.8,3.1,1.1,3.2,4.8h0ZM503.2,306.7c1.1,1.5,2.6,6.4-1,7.4,1.2-5.7.2,1.3-1.2-6.3-.4-2.3-1.1-1.2-1.6-3.6-1.1-5.6-.3-1-1.5-5.6-.6-2.3.3,1-.3-1.3l-.6-2s0-.3-.2-.4c-1.2-2.3-1.2-.7-2.1-3.9-.8-2.7.6-4.4,3.4-4.4s2.9,1.4,2.8,7.1v5.2c.6,6.7-.3,4.3,2.3,7.7h0ZM486.1,293.9c0-2,4.2-3,6.5-3.2l3.5,11.2.5,4.9c-2.7-.2-.8.4-2.6-.7-1.8-1.1-.7-.9-1.4-2.2,0-.2-6.5-6.7-6.5-10h0ZM492.3,319.5c-3.1-1-.6,0-1,.7,0,0-.7,1-.6,1.3l.9.7c1.3-1.9,2.6-2,.6-2.6h0ZM476.4,314.1c2-1.3,3.2-2.7,4.7-4.8,2.8-3.8,0-2.6.3-7.1,0-1.4.6-2.9.6-5.9,1.7.4,1,0,2.1,1,1.5,1.4-.4.6,2.1,3.6,1.7,2,7.6,8.8,7.6,10.5s-1.1,5-1.3,7.5c4.2-2.8.7-2.4,4-4.8,1,4.5,2.1,2,.3,6.6l-2.3,4.9s0,.3-.2.4l-5,8.3-3.2,1.6c0-4-4.6-10.7-6.9-15.7l-2.8-6.1h0ZM483.6,289.1c-.3-.7-.2-1.6.4-2.6.3-.6-.2-.3.9-1,1.2-.8.6,0,1.7-.7,2.8-1.6,1.7-3.6,5.3-2.2,5,1.9,3.8.7,7.2,1.6,3.4.9,3.4,1.7,8,1.7-.8,2-.4,3.8-.4,5.8,0,3.6,1.2,3.8-.4,7.1l-.5-1.5c0-.4-.3-1.2-.4-1.6-.4-1.3-1-2.8-1.1-4,0,0-.3-4.1-2-5.5-1.4-1.3-6.4-.6-8.7-.7-1.4,0-1.2-.2-3.5-.4-.3,3.6,0,2.1-2.9,3.7-2.1,1.1-1.7,1.4-3.6.4h0ZM471.5,299.5c.8-1.5.3,0,.4-1.8,0-.9-.3-3.3.5-6.1.5-2,2-4.2,3.8-4.9,2.7-1.1,3.6,1.8,3.9,3.8.7,4.3-3.7,5.4-6.3,8.1l-.4.4c-1.4,1.6-.5,2.2-1.8.6h0ZM473.1,302.8c2.5-1.7,1.8-2.4,4.8-3.2,2.5,4.5-1.6,2.4-2.4,12.1-2.2-1.6-2.4-3.4-2.4-8.9ZM79.1,294.7c5,.4.6,0,2.4,1.7.6.6,1.8,1.3,2.1,0,0,0,.2-.3.5-.3l-1.2,2.8c-.4.9-.2.3.2,2.1,3.8-1,.9-1.6,4.8-1.6v.8c-3.7,0-2.9,1.4-5.7,4-1.5-1-2.4-1.6-3.2-3.3-1.2-2.8,0-1.4,0-3.9v-2.4h0ZM56.5,337.5c.6-2.3,1.8-3.6,3.2-5.7l1.3-2c3-4.5,3.7-3.1,5.4-4.7l3.2-3.2s.5-1.7.4-2.3c-.3-2.8-2-3.7-.6-6.5,1.5-3,3.7-7.7,5.7-9.5,1.3.9,1.5,1.1,2.5,3.8.7,1.9,0,7.4,2.3,12.4-2.5,1.7-3.4,3.4-6,5.3-1.8,1.4-1.4,1.3-3.6,1.5-1.7.2-1.1-.3-4.1.4,1.3,5.4.5,3.9-3.3,6.4-3.6,2.3.8.6-6.4,4.1h0ZM88,314.9c-1.9,2.6-3.6,2.7-6.5,4,0-5.4-2.5-7.5-.6-11.5l7.1,7.5ZM88.8,310c.6-1.2.6-1.4.8-3.2h2.4c-.2,3-.3,3-3.2,3.2ZM465.1,319.6h0c.5.7-1.2,2.9,0,0h0c-2-2.4,1.7.2,0,0h0ZM470.1,313.8c2,4.3-1.5,5.9-4.8,9.4l-.8.8c-2.9,2.9-2.5,3.1-5.2,4.5.2-2.9.8-3.9,2-6.1,1.6-3.1,1.1-1.8,2.6-3.8,1.2-1.7.3-.3,1.1-2.8l3.2-4.2.8.8c0,0,.3.3.4.4.9,1.2,0-.4.6,1h0ZM68.6,318.1v3.2c-1.4,0-.7.4-1.8-.4-.6-.4-.5-.4-.5-1,0-1.7.5-1.4,2.2-1.8h0ZM82.4,326.2c.3-3.6,2.6-5.7,6.5-5.7s3.3,2.2,4,4.8c-4.5,1-5.6,1.9-10.5.8h0ZM89.9,328.9c7.6-1,5.4-2.1,6.6,5.9,1.2,8.1.4.4.4,9.1-6.1,0-9.7,0-11.4-7.5v-.5c0-.2,0-.8,0-1-.5-2.8,0,0-.6-2.2-.2-.6-.5.5-.7-2.6,4.5-.4.7-.2,3.5-1s.8,0,2.4-.3h0ZM81,330.6c1.7.8,1.7,2.8,2.6,5.6,1,2.9,1.7,3.1,1.9,6.2-4.6,1-2.1-.7-8.5,1.9-2.9,1.2-18.1,7.6-19.6,7.5-2.2-.2-6.9-3.7-8.2-5.4,2-2.7,7.4-4.6,11.1-5.9,4.2-1.5,5.8-1.5,7.4-4.4,1.2-2.2,3.9-5.4,6.7-5.9,1.5-.3,6.6.4,6.6.4h0ZM453,342.3c.8-3.1,1.8-4,5.7-4-.7,2.7-2.9,5.6-5.7,4ZM461,333.5c.2-2.5-.7-1.5,2.7-4.6l2.8-2.1c3.9-3.2,2.5-6.6,8.3-7,.2,3,3.5,8.4,5.4,12.3l.6,1.3c2.2,4.7,2,.6,2.1,5.9-2.4.5-2,0-3.7,1.2l-2.3,1.6c-2,1.3-11.6,7-13.4,7.2-4.2.5-6,0-7.2-1.9-.8-1.4,1.5-2.7,3.3-4,2.9-2,3.6-2.5,6.5-6.4,1.4-2,1.5-3.1,4.8-3.3.3-3.5,1.4-2.3-.2-3.9s-2.5-.4-3.5.8c-1.6,1.9-1.8,2.8-6,3.1l-.2-.2ZM105.8,343.1c5.6,1.5,2.5,2.3,2.4,2.4,0,0-1.8,3.4-2.4-2.4ZM478.2,345.8l-.2-.2.2.2ZM480.4,344.8c-.7,1-1.4,3-2.7,1.7-2-2.1,0-1.6,1.1-2,5.9-2.3-.2-.7,5.6-3.7.7,1.4.9,2.6,1.6,4-3.6,1.7-3.1,1.7-5.7,0h0ZM79.9,348.8c.7,2.7,1.2,2.7,3.2,4,1.6-3.9-.2.7-.5-3.5,0-.9-.4-2.2,2.1-2.2,4.9,0,2.2,2.5,6.5,4-2.5,3.7-2.6,1.2-5.8,2.3-2.9,1-1.4.9-3.3,2.3-3.4,2.4,1-.6-2.9,1.1l-.9-4.8c-2.7,1.8-3.6,2.2-5.7-.8,2.4-1.6,3.3-2.3,7.3-2.4ZM451.3,350.4h4c-3.4,5.1-1.8,4-4,5.7-1.6-3.8,0,.9,0-3.2v-2.4h0ZM482,353.6c-1.9-1.3-.8-1-3.2-1.6,0-2.6,1.5-2.7,4-1.6,0,1.2,0,2.2-.8,3.2ZM64.6,356.9l.2.2-.2-.2ZM63,356.1c.7-.6,1.9-1.6,3.2-1.6,6.1,0,4.3.9,5.7,3.2,0,0-.3,0-.3,0-3.2,1.3-5.6,2.6-8.6-1.8h0ZM105.8,360.1c-7.1,0-6.8-.9-9.7-1.6v-2.4c2.5-.9.7,0,7.3,0,.8,3,.9,1.7,2.4,4ZM450.5,360.9c6.9-4.6,4.5-1.9,8.9-4.8,0,4.2-1.7,4.6-3.3,7.2-3.2,5.1-.5,4.1-3.9,6.6-1.8-3.7-1.6-4.8-1.6-8.9h0ZM107.6,373.6c-2.2-2.7-6.4-6.8-6.7-10.3,1.3-1.5,6.7.5,7.4.7,4.9,1,9.7-1.6,9.4,7.3,0,3.5-2.7,8.6-7.1,9-.2-2.4-1.1-4.3-3-6.6h0ZM444.1,365.8c6.8,4.5,1.4,5.7,4,12.1-3.8-.3-3.2-.9-3.8-3.6,0-.7-.3-1.2-.5-1.8-1.3-4.2-1.6-3.9.3-6.8h0ZM470.7,363.3c1.4-.7,3.9-1.9,2.5-3.3s-2.1,1.6-2.5,3.3ZM461.8,374.6c-2.9-3.9-1.7,0-4.3-1.6-3.5-2.1.4-7.6,1.4-9.3l2.7-4.5c4.8-8.4,6.9-5,12.4-2.5,2.4,1.1.7-.2,3.9-.6.7,3,1.5,2.6-.5,5.1l-11.6,9.5c.7-3.1.9-2.6,2.5-3.8,1.1-.8-.4,1.3,1.3-1.2.8-1.2.5-.7,1-2.3h-2.4c-.4,3.3.8.7-2.7,4.5-8,8.6-2.9,3.4-2.8,6.1l-.9.7h0ZM466.7,377.1l.2.2h0c0,0-.3-.2-.2-.2ZM445.7,385.1c-2.8,1.2-.7-.6-4,1.6-2.7-4.1-2-1.4-2-5.9s-.5-1.7.6-2.8c.7-.8.7-.4,1.1-.6,1.4-.7,1-.9,1.9.4-.6,1.2-.6,0,0,1.7l2.6,5.6h0ZM141.4,380.4l-.9.7c-1.3-.7-2.4-.7-4-.8,0-.3.3-2,.3-2.1v-.9c0-.2-.3-.2-.4-.5l5.1,3.5h-.1ZM116.3,387.6c1.1-2,1.4-4.8,4-4.8s.8,1.1,1.8,3.9c1.1,2.9.8.7,1.1,2.8.9,6.5,1.3,3,1.7,6.9.4,2.9-.4-.6,0,1.5.3,1.6.7.5,1,3.5-1.1-.8-.7-.4-1.7-1.6l-1.8-3.1c0,0-.2-.3-.3-.4l-5.6-8.2c0-.3-.2-.3-.3-.5h0ZM139.9,391.7c-1.9,2.1-3.6,3.9-5.8,5.5-.8-1.9,0-1.5-.3-3.1-.6-4.3.2.4-1.2-2.7-1.2-2.8-1.2,0,0-3.3,2.5-6.7,3.3-5.2,7.2-4.4,2.5.5-.8-.2,1.5.3,2.1.5,1.8.4,3.3,1.1-.8,1.5-.9,2.1-2,3.6l-1.5,1.8q-.6.7-1.1,1.3h0ZM408.5,390.8c-3.8,0-3.2,0-4.8-2.4,0,0,6.1-2.6,4.8,2.4ZM462.4,387l.4.4c3.2,2.8,2.8,3.9,6,8.5,1.3,1.8,1.7,1.9,1.9,4.6-2.3,1.5-2,1.3-5.7,1.6-7.1.5-6.7,2.5-12.9-10.5.2-.3,1.5-1.6,1.9-2.1,2.3-2.7,1.4-3.1,4.5-5.2l3.8,2.7h.1ZM410.2,395.5c.9-3.4.4-1.7,3.1-3.1l1.7,2.3c-2.2,1.1-1.6.8-4.8.8h0ZM113.8,398c0-4.1,0-4.2.8-7.3,3.6,1,6.5,7.4,7.2,8.6,1.4,2.3,3.2,4.4,4.1,7.6-.9,1.4-1.1,1.3-2.1,2.7-1.5,2.1,0,0-1.2,1.7-.7.9-.2,0-.7.8l-6.2,12c0,0-.2.4-.3.5h-1.6c-1.4-5.4-.6.7-1.3-7.1-.5-5.3-.6-6.3-.6-9.1,0-4.3-1.7-5.3-1.7-8.7,0-8.8,2.4-2.6,3.6-1.7ZM146.1,410.1c-2-1.4-3.2-3.4-6.2-6-1.1-.9-.3,0-1.3-1.1-1.9-1.9-1.5-3,0-5l2.1-2.1c3.6-3.4,2.6-1.7,5.3-2.8,1.7,7.5,4.2.3,1.6,9.6-.7,2.3-.3,2.1-.3,4s.3,1.1-1.3,3.4h0ZM427.6,396.6c0,0,.2-.3.4-.4v2.7c-1.4,1.1-.3.5-2.6.6.6-1.2.6-1.4.8-3.2l1.3.2h.1ZM445.7,401.2c0-1.2,3.8-6.5,4.8-7.3.5,1.1.6,1.4,1.2,2.9l.7,1.8c.9,2.4.8,1.4,2.1,3.4-4.2.3-.8,0-3.5,1l-.8.2c-.2,0-.8.2-1,.2-3,.8-3.6,1.5-3.6-2.3h0ZM407.7,398c1.3,1.9,1,.8,1.6,3.2-2.6.6-2.9.8-5-.2l3.4-3.1h0ZM412.6,405.2c.5-2,.3-2.8,5.7-3.2-.6,2.5-.2,2.8-2.8,3.6-1.5.4-1.8.2-2.8-.3h-.1ZM166.4,415.7c-1.5-1.5-.4,0-1.8-1.4-2.4-2.4-.5-1.4-2.5-4-.9-1.2-2.3-2-3.1-3.2-1.6-2.8.5,1-.5-1.6-.4-.9-.5-1-1-1.8,3.7.3,1.1-.2,3.5,1.4,3.8,2.4-3.1-2.2,1,.7,0,0,.3.2.5.3l2.2,1.8c1.6,1.1,5.2,3.5,5.4,5.7.2,1.4-.2,3.3-2.1,4.7l-1.6-2.5h0ZM133.2,404.4c4.2,0,2.6,0,5.1,2.2,2.2,1.9,2.1.9,3.8,3.5-7.4,1.6-4.2-1.5-10.5-1.6l1.6-4h0ZM421.2,404.3c1.3-2.8.7-1.8,2.6-3.1v5.7c-.3,0-2,.3-2.1.3-1.3,0-.2.2-1.2-.3-.5-1.1-.6.2.3-2,0-.2.2-.4.3-.6h.1ZM462.1,407.4c-.9-.4.2-.3-1.9-.5,2-3.7,10.4-2.2,11.2,0,.2.6-.3,3.3-.3,3.3l-.4,1.2s0,.3,0,.4l-.6,5.4c-6.1-3.2.3-4.1-6.3-9,0,0-.3-.3-.5-.4,0,0-.3-.2-.5-.3-.2,0-.4-.2-.5-.3h-.1ZM165.5,396.3c.7.4-.7,1.3,1.6,0,1.2,4.3,3.6,4.8,6.2,7.4,0,0,.2.2.2.3l1.4,1.8c3.1,5.1,4.5,1.7,3.5,6.7l-3-4.6c-1.4-1.9-2.2-.7-3.8-3.1-1.5-2.1.9-.5-1.7-2.4-2-1.5-1,1.4-3.8-3.5-1.1-1.9-1.7-1.5-1.6-1.9l.9-.7h.1ZM453.8,407.6c.8,3.9-.3,5.8-4.6,8.4-11.9,7.2-6.3-6-6.3-6.2,0,0,.2-1.2.4-2.1h10.5ZM380.3,411.7c-1.4,0-1.3-1.2-1.6-2.4,3.2,0,1.9-.2,4,.8-.9,1.3,0,1.6-2.4,1.6ZM163.9,419.8c-3.1-1.1-.6-.8-4.6-2.7-7.9-3.7-6.9.7-8.1-5v-.4c-.2-1-.9-.3.6-1.5,1,.6-.2.6,1.5.5,2.9,0,0-1,4.2-1.3.5,6.1,5.9,4.4,6.5,10.5h0ZM440.8,432.7c-.8,2.3.9,0,.9,0,2.2-1.2-.9-.2-.9,0ZM439.6,434.9c-1.4-2.7-2.6-2.9-1-5.2l8.6-8.1s.3-.2.4-.2c7.1-4.9,2.9-1.8,9.1-2.8.7,0,.4,0,1-.3-1.3-5.8-6.2-4.3-.2-7.6,1.6-.9,2.2-1.6,4.1-.2,6,4.3,5.4,10.9,5.7,11.7,0,0,0,.3.2.5,0,.2.3.8.4,1.1.3,1,.4,1.3.7,2.5.2,1.2.3,2.8,0,3.2-.7,1.2-8.1,3.1-9.3,3.3l-15.2,4.2c-1.2-1.2-1.4-.8-1.6-3.2-4.5,3.2,2.2.9-2.4,2.4l-.3-.7s0-.3-.2-.4v-.2ZM414.2,417.3c2.8-.7,3.8-1.6,4-4.8,3.7,1.5,2.3-1.6,4,.8-.3.5-1.7,4.4-4.6,5.3-2.8.8-3.2-.9-3.4-1.3ZM142.1,422.2c-3.3-2.2-3.7-2.8-5.7-5.7,4.7-4.6,6.9,2.5,5.7,5.7ZM424.7,421.4c0-3.7-.4-5.5.8-8.1,3.6,0,1.1-1,4,2.4-1.3,5.7-.4,3.5-4.8,5.7ZM152.6,428.6c-5,2.6-1.9,2.1-5.7,2.4-.2-2.2-.2-1.4-.6-2.5,0,0,0-.4-.2-.5-1.4-3.9-1.6-2.3-1.9-9,0-1.4-1.4-2,.9-2.1,4.4-.3,4.6,4.4,4.6,4.4.8,4,2,4.2,2.8,7.3h0ZM142.1,426.2c1.7,1.9,4.4,6.4-1.6,6.4s-2.7-1.9-3.4-4.2l-.5-1.6s0-.3,0-.4c-1.3-3.8-1.5-1.9-1.5-5.9,2.4.6,4.9,3.4,6.8,5.3,0,0,.3.3.4.4h0ZM167.5,427.4c1.3.6.8.2,1.9.5l3.1,1c3.3,1.3,1,1.2,4.2,2.1l-6.7.6c-3.1-.8-4.9,1.6-3.8-3-2.1,1-4.8,2.7-4.8-.8s1.7-2.4,3.2-2.4,1.1,1.3,2.8,2h0ZM208.6,431.3c0,0-.2.4-.3.5-3.2-2.1.4-.3-4.8-3.2,0-2.2,0-1.7,1.4-2.1,1-.4,2.1.9,3.7,1,1.2,0,.8-1.6,2.2.3l-.7,1.3s-.2.3-.2.4l-.9,1.3c0,0-.2.7-.3.5h0ZM408.5,435.1c.6-2.7.8-4.6,0-6.5,4.5.4,1.5,1.4,5.1,1.2,5.6-.4,7.5,0,4.7,6.1-2.5,5.6.8-3-.9,1.6-6.3,0-4.9-.3-8.9-2.4h0ZM188.1,434.3c-2.6-1.7-.6-1.3-4-1.6,1.4-3.4-.6,0,.8-3.2l5,2.5-1.7,2.3h0ZM362.5,437.5c1.4-.6,13.9-1.3,14.4-1.4,3.9-.5,7.1-6.3,9.8-3.7,1.3,1.3.4,0,.3,1.2-.6,4.3-3.4,3.3-6,7-1.2,1.6-1.2,2.6-3.2,3.1h-.5c-4.4.8-6.4-.6-9-2.3-4.4-2.9-4.1-1.8-5.7-4h0ZM421.5,435.1c-.4-1.5-.2-1.3-.8-2.4.3-.4,2.3-1.5,4,0-1.4,2.1-.4,1.7-3.2,2.4ZM444.1,442.4c.3-3,1-2.7,3.6-3.7,7.5-2.8,12.3-4.1,19.7-5.9l.8-.2c.7,0,1.6-3.3.9,6.6-.8,11.9-.3,13.2-7.5,10.8-3.8-1.3-3.9-1.1-8.6-1.1-.8-3-3.5-4.6-6.3-5.8-1.3-.6-.3-.5-2.5-.7h0ZM155.2,439.7c-2.5.3-2.5-.5-5.8-.5,0-3.9,5.1-2.9,7.3,0-1.2.6,0,.4-1.4.5h0ZM423.1,439.9c-2.2-.2-1.8,0-3.2-.8.3-1.7,1.3-1.5,3.2-1.6v2.4ZM427.1,440.7c.8-3.5,1.5-3.1,4-4.8,1,1.9,1.4,2.1,1.6,4.8-3,.6-2.6.6-5.7,0h0ZM396.6,435.7c1.9,1,2.3,1.2,4.7,1.8-.7,2.6-.3,2.6-4.2,3.1l-3.2.4h-.5c-2.7.7-.8,2.5-2.6.5,0,0,0-.3,0-.3,2.2-4.8,1-3,.7-6.9,2.4.2,3.2.5,5,1.5h0ZM414.8,445c-.7,1.8-2,4.9-3.8,6.2,0-7.3-3.2-9.2.6-9.6l1.6.2c1.7.3,1,.2,2.6,1.3l-1.1,1.8h0ZM324.6,446.4c2.3-.8,2.4-.9,3.2-3.2,4.2.4,1.8,1.4,4.4,1.1,2.8-.4.9-.8,4.5-1.1-1.4,3.8-4.7,3.5-6.3,4.2-1.7.7-1.8,1.3-3.2,1.2-1.9,0-1.6-.7-2.6-2.2ZM444.2,446.7c-1.4-.6-1.9-1.7-2.6-2.7,2.1-2.4,5.5,1.7,6.5,3.2-1.4,0-3.8-.5-3.9-.5ZM380.3,448.8c1.4-1.9-.6-2.3,5.7-2.4,0,0,0,.3,0,.3l.4,1.1c0,.2.5,1.2.5,1.2.3,1,0,1,.6,3.1h-4.7c0,0-2.6-3.2-2.6-3.2h0ZM399.7,453.7c-1.5,1-2.1,1.6-5.2,1.4-5.5-.3-4.2-7.4-3.8-8.1,1.6-2.8,9.4-2.7,9.7-2.5,3.9,1.6,1.4,4.8,2,8.9.5,3.5,1.4,2.1.6,5.9-4.8-1.1-3.6-1.6-3.2-5.7h0ZM344.8,445.6c2.1,1.4,2.5,1.4,3.2,4-3.3.7-2.9,0-5.2.6-3.1.7-2.8,1.6-4.5-1.4,1.7-2.3,3.3-2.5,6.5-3.2ZM187.3,457.7c-2.4-.6-2.1-.5-3.8-1.8,0,0-1.2-1-1.3-1.1l-5.8-3.9c-8.8-5.5-9.4-9.8.6-9.1,10.1.8,2.5,1.6,10.4-.2l3.7,2.8c4.5,3.1-1.4-1.9,1.4,1,1.3,1.3,1.9,4,1.8,5.3,0,1.9.2.4-1.1,1.2-3.4,2-2.7,3.1-5.9,5.8h0ZM356.1,464.2c-.9-10.5.9-6-2.4-12.9,4.9.4,3,1.6,4.2,4.2l3.9-3.4c2.3,3.4,2.1,3.1,3.5,9,.4,1.8-.4.2.5,2.3-3.1.7-2.7,1.6-5,1.1-3.4-.6.8-.8-4.7-.3h0ZM199.4,451.2c.9-.5,0-1.6,2.7.5.4.3,1.4,1.8,1.5,2.3.3,1.7-.5,1.9-1.4,5l-.4,1.4c-2.3,7.8-2.8,7.3-7.5,3.2-4.2-3.7-1.7,2.9-3.5-2.4-.8-2.2,6.5-8.9,8.5-9.9h0ZM370.6,457.7c0,0-.8,1.6-1,1.8l-3-3.3,2.3-1.7c1,1.5,1.6,1.4,1.6,3.2h0ZM205.9,455.3c2.2.2,6,1.9,6.8,3.4.7,1.3.4,1.5-.6,2.9l-1.5,2.1s0,.3-.2.4l-1.8,2.3c-.3.4-.6,1.3-.7,1.7-2.3,5-7.2,5.5-3.9-4.9,0,0,0-.3,0-.4s0-.3.2-.4c1.3-3.4,1.3-3,1.6-7h0ZM269.9,457.9c2.3,3.5,2.3,1,1.4,5.4-2.2-.5-2.6-.2-3.5-.7-5.5-3.2-1.3-9.9,2.1-4.7h0ZM329.4,460.9c-5.2,2.1-9.3-4.4-9-5l.9-.7c2.2,3.1,4-.5,8.1,5.7ZM345.6,453.7l.2.2-.2-.2ZM342.9,462.9s-.3,0-.4,0c-.2,0-.7-.3-.9-.4-4-1.7-5.7-2.2-5.7-7.9,2.8-.3.7-1.3,5.9-1.2h4c7,1.5,5.4.6,5.4,4.3s.2,6.1-.8,8.2c-3.3-.3-2.7-1-6.2-2.4l-1.3-.5ZM372.2,460.9c1.9-2.8,4-3.3,4.8-6.5,6.7.2,2.2,2.7,8.1,3.2-2.4,5.8,2.3-.5-.7,2.5s3-.5-1.5.5h-.5l-2.6.5c-1.8.3,0,0-2,.4-1.5.4-2.8.9-3.9.5l-1.7-1.3v.2ZM295.5,456.1c4.1,2.7,5.8,7.5.7,5.1-2.3-1.1-2.8-.8-3.1-4.3,1.4,0,.9.4,2.4-.8h0ZM237.7,462.1c-2-3.5-1.7-1.7-1.2-2.8.7-.3-.7-1.3,1.6,0,.7.4,1.1,1,1.5,1.7.9,1.5.4,1.3.9,3.9-3.9-1-1.4-.3-2.9-2.8h0ZM402.6,463.1c.9,2.6.3.4-.5,1.8-1.1.5-2.5,0-4-1.6-4.3-4.9-2.8-.9-3.2-4.9l5.3,2.8c2.4,1.4,1.6-.8,2.5,1.8h0ZM243.9,463.2c-.3-.5-1-.5-1-.8l.9-.7c.2,0,.4.2.5.3,5.4,3,2.3,1.7,3.5,4.5h-4c.5-1.3.3-.4.4-1.4.2-1.6,0-1.3-.4-2h0ZM226.6,464.4l.2-.2-.2.2ZM317.3,468.2c5.8-.6,3.1-4.6,0,0ZM323,471.5c-2.5.5-4.1,0-6.1.7l.4-4c-3.6,1.3-2.6,3.2-7.3,0,.3-3.7.7-2.2,2.4-4.8,2.5,1.2,1.8.5,2.9,2,0,0,.6,2.9,2.1,1.2,2.5-2.9-4.7-5.1,1.7-4.3,4.5.6,1.7.5,4.9,2.1,0,0,.3,0,.4.2.2,0,.6.2.8.3l.8.2h.4q2.9.9,3,4.7c-2.6.6-3.5,1.2-6.4,1.7h0ZM336.1,469.4c-2.4-.3-3.3-.3-5-1.2,2.1-3.8,2.9-2.5,8.1,0-1.2,1.7-1.6,1.4-3.1,1.2ZM397.8,468c0,0,.3.2.2.2l-.2-.2h0ZM288.2,469c-1.4,3.4.6,0-.8,3.2-1.2-.6-4.1-2.2-3.6-3.9.8-2.6,1.1-.2,4.4.7h0ZM326.2,476.3l.2.2-.2-.2ZM335.9,471.4l.2.2-.2-.2ZM323.8,476.3c1-3.6,4.7-3.9,7.1-3.6,4.4.5,0,1,4.8-1.2l13.4-2c3.3.4,1.4,2.8,1.4,7.6,2.3-1.7.8,0,1.3-1.8,0,0,.2-1.9.3-3,2.7,1.9.7-.2,1.4,2.3,1.7,5.9.2,10-4.3,13.4-2,1.5-2.5,2.4-4.4,3.7-2.2-1.4-2-1.9-3.8-3.5l-14.5-10.5c-2.2-1.4,0-.6-2.7-1.3h0ZM275.3,472.2c1.5-3.1.2-3.8,4-4.8.6,2.5,1,2.3,1.6,4.8-2.7,1.5-1.7,1.9-5.7,0h0ZM255.1,483.5c-2.6-1.4-2.7-1.7-4.8-4.8.8-.9,4.6-.5,5.7,0-1.1,2.2-.8,1.6-.8,4.8h0ZM292.3,481.9c-2.1,1-.9.7-4,.8,0,0,0-.3,0-.3,0,0,0-.3-.2-.3l-.7-1.6c-.7-3.7,2.7-2.1,5.1,1.4h0ZM302,478.7c2.4,1,1.1-.6,2.3,1.2l1.6,2.7-1.5,1.8-3.2-1.7c.4-1.8.6-1.9.8-4h0ZM314.9,494.8c-6.8-1.6-9.7-10.2-7.3-15.3,5.7,3.8,0,1.2,5.1,9.5l1.7,3.1c.6,1.7.4.6.5,2.7h0ZM283.5,487.7c0-.4-1.1-2.4-1.7-3.4l-.9.7,1,1.7s.6,1.5.7,1.7l.9-.7h0ZM272.1,490.8c0,.3.7.5.7.5,0,0,1,2.9.5,0-.2-1-1.5-3.3-1.2-.6h0ZM270.5,486c0-13.2,10.1-1.8,10.5-1.6-.5-2.1-1.4-2.9-1-3.9.8-2.2,3.2.5,5.8,2h.2c0,0,3.1,2.7,3.1,2.7-.9,3.3-2.4,4.8-5.7,3.2.6,2.7.8,2.9-.8,4.8-1.1,1.2-2.6,2.4-4,3.4-3.2,2.2-5.7,3.5-8.2,7.2-6.4-3.1-2.1,1.3-8.9-3.2,2.2-4.5.5-2.2,3.9-5.8,2.4-2.6,1.7-3.9,3.4-7.1,3.9,1.4-.3,0,2,1.4,1.2.7,0,1.6,1.3.3,1.6-1.6-1.7-1.4-1.7-3.3h.1ZM264,485.2c.2,2.5.6,2.7.4,3.9l-.9,3.2c-.9,2.7-3,5.2-5.2,6.6l-1.5-1.8,4.4-8.1c1.4-2.4-.3-1.7,2.7-3.8h0ZM304.4,492.4c-2.8-.2-5.5-1.1-6.7-3.5,0,0,0-.3-.2-.4l.2-1.4c0-.2,0-.2.2-.3l6.5,3.2c-.9,2.1-.9.3,0,2.4h0ZM317.3,502.1c-3.1-1.7-3-2-2.4-4.8,3.5.9,3.3,2.7,2.4,4.8ZM287.4,514.2l.2.2-.2-.2Z"></path><path class="st1" d="M166.3,322c-.7.3-2,.5-3,.5-3.4,0-5.6-2.3-5.6-6.6s2.5-6.8,5.5-6.8,2.3.3,3,.6l.9-3.9c-.6-.3-2.1-.8-4.2-.8-5.4,0-10.3,3.6-10.3,11.1s3.1,10.4,9.8,10.4,3.7-.4,4.4-.7l-.6-3.9h.1Z"></path><path class="st1" d="M260.9,308c1.1,0,1.5,1.1,1.5,2s-.5,2-1.9,3c-.8-1-1.2-1.9-1.2-2.9s.5-2.1,1.6-2.1M260.5,323.1c-1.9,0-3.1-1.4-3.1-3.2s.6-2.1,1.3-2.6c1.4,1.8,3,3.7,4.2,4.9-.6.6-1.5.9-2.4.9h0ZM267,314.5c-.2,1.7-.6,3.6-1.4,4.9-.8-.9-2.1-2.6-3.1-3.9h0c2.9-1.8,3.9-3.6,3.9-5.6,0-3-2.3-4.9-5.4-4.9s-6,2.7-6,5.5.6,3,1.6,4.2h0c-2.3,1.4-3.7,3.3-3.7,6s2.2,5.9,6.8,5.9,4-.7,5.2-1.6c.4.5.8.9,1.1,1.3h5.4c-1.2-1.4-2.4-2.8-3.4-4,1.7-1.9,2.7-4.6,3.2-7.7h-4.2Z"></path><path class="st1" d="M283.9,314.6v-5.7c.3,0,.8,0,1.5,0,1.1,0,2.9.5,2.9,2.8s-1.2,3-3.2,3h-1.2,0ZM289.6,316.3c1.9-.8,3.5-2.7,3.5-5.2,0-5.8-5.5-6-8.3-6s-4.2.2-5.7.4v20.7h4.7v-8.2h.9c1.6,0,2.3.7,2.8,3.2s1,4.3,1.3,4.9h4.9c-.4-.8-1-3.6-1.5-5.9-.5-2-1.2-3.4-2.7-3.9h.1Z"></path><path class="st1" d="M177.4,308.9c2.4,0,3.7,3.1,3.7,6.7s-1.2,7-3.7,7-3.8-2.9-3.7-6.9c0-3.6,1.2-6.8,3.7-6.8M177.5,305c-5.6,0-8.9,4.9-8.9,10.8s2.8,10.7,8.6,10.7,8.8-3.8,8.8-11.1-2.4-10.5-8.5-10.5h0Z"></path><polygon class="st1" points="193.7 326.3 193.7 317.9 199.9 317.9 199.9 314 193.7 314 193.7 309.3 200.4 309.3 200.4 305.3 188.9 305.3 188.9 326.3 193.7 326.3"></polygon><polygon class="st1" points="208.5 326.3 208.5 317.9 214.7 317.9 214.7 314 208.5 314 208.5 309.3 215.2 309.3 215.2 305.3 203.7 305.3 203.7 326.3 208.5 326.3"></polygon><polygon class="st1" points="230.5 322.3 223.3 322.3 223.3 317.4 229.7 317.4 229.7 313.5 223.3 313.5 223.3 309.3 230 309.3 230 305.3 218.5 305.3 218.5 326.3 230.5 326.3 230.5 322.3"></polygon><polygon class="st1" points="245.4 322.3 238.3 322.3 238.3 317.4 244.6 317.4 244.6 313.5 238.3 313.5 238.3 309.3 245 309.3 245 305.3 233.5 305.3 233.5 326.3 245.4 326.3 245.4 322.3"></polygon><path class="st1" d="M304.1,308.9c2.4,0,3.7,3.1,3.7,6.7s-1.2,7-3.7,7-3.8-2.9-3.7-6.9c0-3.6,1.2-6.8,3.7-6.8M304.2,305c-5.6,0-8.9,4.9-8.9,10.8s2.8,10.7,8.6,10.7,8.8-3.8,8.8-11.1-2.4-10.5-8.5-10.5h0Z"></path><path class="st1" d="M320.5,317.8l.9-4.2c.2-1.2.6-3.1.9-4.4h0c.3,1.3.6,3.1.9,4.4l.9,4.2h-3.7.1ZM325.6,305.3h-6l-5.5,21h4.8l1.1-4.9h4.8l1.2,4.9h4.9l-5.4-21h0Z"></path><path class="st1" d="M345,305.9c-1-.5-2.5-.9-4.6-.9-4.9,0-7.6,2.8-7.6,6.3s1.7,4.6,5,6.1c2.2,1,3.1,1.7,3.1,3s-1,2.1-3,2.1-3.4-.5-4.6-1.1l-.8,4c1,.5,3.1,1.1,5.2,1.1,5.1,0,8-2.7,8-6.5s-1.4-4.7-4.7-6.2c-2.6-1.2-3.4-1.7-3.4-2.9s.9-1.9,2.7-1.9,2.9.5,3.7.9l.9-3.9h0Z"></path><polygon class="st1" points="361.4 305.3 347.1 305.3 347.1 309.5 351.8 309.5 351.8 326.3 356.6 326.3 356.6 309.5 361.4 309.5 361.4 305.3"></polygon><polygon class="st1" points="375.7 322.3 368.5 322.3 368.5 317.4 374.9 317.4 374.9 313.5 368.5 313.5 368.5 309.3 375.3 309.3 375.3 305.3 363.8 305.3 363.8 326.3 375.7 326.3 375.7 322.3"></polygon><path class="st1" d="M383.5,314.6v-5.7c.3,0,.8,0,1.5,0,1.1,0,2.9.5,2.9,2.8s-1.2,3-3.2,3h-1.2,0ZM389.2,316.3c1.9-.8,3.5-2.7,3.5-5.2,0-5.8-5.5-6-8.3-6s-4.2.2-5.7.4v20.7h4.7v-8.2h.9c1.6,0,2.3.7,2.8,3.2s1,4.3,1.3,4.9h4.9c-.4-.8-1-3.6-1.5-5.9-.5-2-1.2-3.4-2.7-3.9h.1Z"></path><path class="st1" d="M405,305.3l-1.6,4.9c-.5,1.5-.9,2.8-1.2,4.2h0c-.4-1.4-.8-2.7-1.3-4.2l-1.7-4.9h-5.3l5.8,12.7v8.2h4.8v-8.4l5.9-12.5h-5.4Z"></path><path class="st1" d="M212.9,349.4h-2.1l-1.6,4.9c-.4,1.4-.8,2.7-1.1,3.9h0c-.3-1.2-.6-2.5-1-3.9l-1.6-5h-2.1l-.8,11.3h1.6l.3-4.7c0-1.6.2-3.4.2-4.8h0c.3,1.4.7,2.8,1.1,4.3l1.5,5h1.3l1.7-5.1c.5-1.4.9-2.9,1.3-4.2h0c0,1.4,0,3.1,0,4.7l.3,4.7h1.6l-.7-11.3v.2Z"></path><path class="st1" d="M219.6,357.9c0,.9-.8,1.6-1.7,1.6s-1.2-.4-1.2-1.3c0-1.4,1.5-1.7,2.9-1.7v1.3h0ZM221.2,355.7c0-1.7-.7-3.3-3-3.3s-2,.3-2.6.7l.4,1.1c.5-.3,1.3-.6,2-.6,1.6,0,1.6,1.2,1.6,1.8-2.8,0-4.5,1-4.5,3s.9,2.4,2.4,2.4,1.8-.5,2.3-1.1h0v.9h1.7c0-.5,0-1.2,0-1.9v-3.1h-.2Z"></path><rect class="st1" x="223.4" y="348.8" width="1.7" height="11.8"></rect><path class="st1" d="M227.6,352.5h-1.1v1.3h1.1v4.2c0,1.1.2,1.7.6,2.2.4.4.9.6,1.6.6s1,0,1.3-.2v-1.3c-.3,0-.5,0-.8,0-.7,0-1-.5-1-1.5v-4.1h1.9v-1.3h-1.9v-2l-1.7.5v1.5h0Z"></path><path class="st1" d="M237.9,356.6c0,1.6-.8,3-2,3s-2-1.3-2-2.9.6-3,2-3,2,1.6,2,2.9M236,352.4c-2.2,0-3.8,1.5-3.8,4.3s1.6,4.2,3.7,4.2,3.8-1.3,3.8-4.3-1.5-4.2-3.7-4.2Z"></path><path class="st1" d="M248.1,355.7c0-2.5-1.4-3.3-2.7-3.3s-2.1.7-2.5,1.4h0v-1.2h-1.6v8.1h1.7v-4.9c0-1.3.9-2,1.7-2s1.5,1,1.5,2.1v4.8h1.7v-5h.2Z"></path><path class="st1" d="M250.4,358.5c-.2,1.3-.6,3.1-1,4.2h1.2c.6-1,1.3-2.9,1.7-4.3l-1.9.2h0Z"></path><path class="st1" d="M265.3,349.4h-1.6v4.2c0,1.8,0,3.2.2,4.8h0c-.5-1.2-1.1-2.5-1.8-3.7l-2.9-5.2h-1.9v11.3h1.6v-4.2c0-2,0-3.4,0-4.9h0c.5,1.3,1.2,2.6,1.9,3.8l3,5.3h1.7v-11.3h-.1Z"></path><path class="st1" d="M272.8,356.6c0,1.6-.8,3-2,3s-2-1.3-2-2.9.6-3,2-3,2,1.6,2,2.9M270.9,352.4c-2.2,0-3.8,1.5-3.8,4.3s1.6,4.2,3.7,4.2,3.8-1.3,3.8-4.3-1.5-4.2-3.7-4.2Z"></path><path class="st1" d="M280.4,352.4h-.4c-.9,0-1.7.6-2.1,1.7h0v-1.5h-1.5v8.1h1.7v-4.3c0-1.4.7-2.4,1.9-2.4s.4,0,.5,0v-1.6h0Z"></path><path class="st1" d="M282,352.5h-1.1v1.3h1.1v4.2c0,1.1.2,1.7.6,2.2.4.4.9.6,1.6.6s1,0,1.3-.2v-1.3c-.3,0-.5,0-.8,0-.7,0-1-.5-1-1.5v-4.1h1.9v-1.3h-1.9v-2l-1.7.5v1.5h0Z"></path><path class="st1" d="M293.8,355.7c0-2.6-1.4-3.4-2.6-3.4s-1.8.4-2.3,1.3h0v-4.8h-1.7v11.8h1.7v-5c0-1.2.9-1.9,1.7-1.9s1.5,1,1.5,2.1v4.7h1.7v-4.9h0Z"></path><path class="st1" d="M305,349.4l-1.3,2.9c-.4.8-.7,1.6-1,2.3h0c-.3-.8-.6-1.5-1-2.3l-1.3-3h-1.9l3.3,6.6v4.7h1.7v-4.8l3.5-6.5h-2Z"></path><path class="st1" d="M312.9,356.6c0,1.6-.8,3-2,3s-2-1.3-2-2.9.6-3,2-3,2,1.6,2,2.9M311,352.4c-2.2,0-3.8,1.5-3.8,4.3s1.6,4.2,3.7,4.2,3.8-1.3,3.8-4.3-1.5-4.2-3.7-4.2Z"></path><path class="st1" d="M320.5,352.4h-.4c-.9,0-1.7.6-2.1,1.7h0v-1.5h-1.5v8.1h1.7v-4.3c0-1.4.7-2.4,1.9-2.4s.4,0,.5,0v-1.6h0Z"></path><path class="st1" d="M325.3,355.9l2.9-3.3h-2l-2,2.7c-.2.3-.4.6-.6.9h0v-7.3h-1.7v11.8h1.7v-2.9l.7-.8,2.3,3.7h2.1l-3.2-4.8h-.2Z"></path><path class="st1" d="M333.9,352.8c-.4-.3-1.1-.5-1.9-.5-1.7,0-2.8,1.1-2.8,2.4s.6,1.8,2.1,2.3c1,.4,1.3.8,1.3,1.4s-.4,1.1-1.4,1.1-1.4-.3-1.9-.5l-.4,1.3c.5.3,1.4.5,2.2.5,1.8,0,3-.9,3-2.5s-.7-1.9-2-2.5c-1-.4-1.4-.7-1.4-1.3s.4-1,1.2-1,1.2.3,1.5.5l.4-1.2h0Z"></path><path class="st1" d="M342.6,355.7c0-2.6-1.4-3.4-2.6-3.4s-1.8.4-2.3,1.3h0v-4.8h-1.7v11.8h1.7v-5c0-1.2.9-1.9,1.7-1.9s1.5,1,1.5,2.1v4.7h1.7v-4.9h0Z"></path><path class="st1" d="M346.4,352.5h-1.7v8.1h1.7v-8.1ZM346.6,350.3c0-.6-.4-1-1-1s-1,.4-1,1,.4,1,1,1,1-.4,1-1Z"></path><path class="st1" d="M352.7,352.4h-.4c-.9,0-1.7.6-2.1,1.7h0v-1.5h-1.5v8.1h1.7v-4.3c0-1.4.7-2.4,1.9-2.4s.4,0,.5,0v-1.6h0Z"></path><path class="st1" d="M355.2,355.8c0-.9.6-2.2,1.9-2.2s1.7,1.2,1.7,2.2h-3.6ZM359.7,359.1c-.5.2-1.1.4-2,.4-1.3,0-2.4-.7-2.5-2.5h5.2v-.7c0-2-.9-3.9-3.2-3.9s-3.7,1.9-3.7,4.3,1.4,4.1,3.9,4.1,2-.2,2.6-.5l-.3-1.2h0Z"></path><path class="st1" d="M176,221.7h7.1c2.5,0,4.2-.5,5.1-1.5.8-1,1.2-2.8,1.2-5.5v-13.2c0-1.7,0-3.1-.2-4.2,0-1-.4-1.9-.9-2.5s-1.1-1.1-2-1.3-2.1-.3-3.6-.3h-6.7v28.5h0ZM176,287.4h-15.7v-107.9h22.4c4.6,0,8.4.3,11.3.8,2.9.5,5.2,1.5,6.9,3.1s2.8,3.8,3.4,6.7c.6,2.9.9,6.7.9,11.4v11.3c0,2.8-.3,5.1-.9,6.9-.6,1.8-1.4,3.2-2.3,4.3-1,1.1-2,1.9-3.1,2.4s-2.3.9-3.3,1.2v.5c1.5.4,2.8.8,4,1.4,1.2.6,2.2,1.5,3.1,2.7.9,1.2,1.5,2.8,2,4.7s.7,4.4.7,7.4v43h-15.8v-45.5c0-2.9-.4-4.9-1.1-6.1-.7-1.1-2.5-1.7-5.2-1.7h-7.1v53.3h-.2Z"></path><path class="st1" d="M244.4,200.8c0-3.6-.4-6-1.2-7s-2.6-1.6-5.5-1.6-2.6,0-3.5.3-1.5.7-2,1.3-.8,1.5-1,2.7c0,1.1-.2,2.6-.2,4.3v65.2c0,1.9,0,3.4.2,4.6,0,1.1.5,2,1,2.7.5.6,1.2,1.1,2,1.3.9.2,2,.3,3.5.3s2.6,0,3.5-.3c.9-.2,1.5-.7,2-1.4.5-.7.8-1.6,1-2.7,0-1.1.2-2.6.2-4.4v-65.2h0ZM260.3,265.9c0,5-.3,9-.9,12s-1.7,5.3-3.4,6.9c-1.7,1.6-4,2.6-6.9,3.1s-6.7.8-11.3.8-8.4-.3-11.3-.8c-2.9-.5-5.2-1.5-6.8-3.1s-2.8-3.9-3.3-6.9c-.6-3-.9-7-.9-12v-65.2c0-5,.3-9,.9-12,.6-3,1.7-5.2,3.3-6.8s3.9-2.6,6.8-3.1c2.9-.5,6.7-.8,11.3-.8s8.4.3,11.3.8c2.9.5,5.2,1.5,6.9,3.1,1.7,1.6,2.8,3.9,3.4,6.8.6,3,.9,6.9.9,12v65.2Z"></path><path class="st1" d="M299.2,200.8c0-3.6-.4-6-1.2-7-.8-1-2.6-1.6-5.5-1.6s-2.6,0-3.5.3-1.5.7-2,1.3-.8,1.5-1,2.7c0,1.1-.2,2.6-.2,4.3v65.2c0,1.9,0,3.4.2,4.6,0,1.1.5,2,1,2.7.5.6,1.2,1.1,2,1.3.9.2,2,.3,3.5.3s2.6,0,3.5-.3c.9-.2,1.5-.7,2-1.4.5-.7.8-1.6,1-2.7,0-1.1.2-2.6.2-4.4v-65.2h0ZM315,265.9c0,5-.3,9-.9,12s-1.7,5.3-3.4,6.9c-1.7,1.6-4,2.6-6.9,3.1s-6.7.8-11.3.8-8.4-.3-11.3-.8-5.2-1.5-6.8-3.1c-1.6-1.6-2.8-3.9-3.3-6.9-.6-3-.9-7-.9-12v-65.2c0-5,.3-9,.9-12s1.7-5.2,3.3-6.8c1.6-1.6,3.9-2.6,6.8-3.1s6.7-.8,11.3-.8,8.4.3,11.3.8,5.2,1.5,6.9,3.1c1.7,1.6,2.8,3.9,3.4,6.8.6,3,.9,6.9.9,12v65.2Z"></path><path class="st1" d="M353.7,214.4v-13.4c0-1.9,0-3.5-.2-4.6,0-1.2-.4-2.1-.9-2.7-.5-.6-1.1-1-2-1.2s-2.1-.3-3.6-.3-2.8,0-3.6.3c-.9.2-1.5.6-2,1.2-.5.6-.8,1.5-.9,2.7s-.2,2.7-.2,4.6v10.7c0,1.4,0,2.5.3,3.4.2.9.6,1.7,1.2,2.5.6.7,1.5,1.5,2.6,2.2s2.7,1.6,4.7,2.6c4.7,2.5,8.5,4.6,11.2,6.3s4.8,3.5,6.1,5.3c1.4,1.8,2.2,3.8,2.6,6s.5,5.1.5,8.7v17.3c0,5-.3,9-.9,12s-1.7,5.3-3.3,6.9c-1.6,1.6-3.9,2.6-6.9,3.1s-6.8.8-11.4.8-8-.3-10.8-.8-5.1-1.5-6.7-3.1-2.8-3.9-3.4-6.9-1-7-1-12v-21.4h15.3v21.4c0,1.9,0,3.4.2,4.6,0,1.1.4,2,.9,2.7.5.6,1.1,1.1,2,1.3.9.2,2,.3,3.5.3,2.9,0,4.8-.5,5.5-1.6.8-1.1,1.2-3.5,1.2-7.2v-16.3c0-1.8,0-3.3-.2-4.5,0-1.2-.5-2.2-1.1-3.1-.6-.9-1.5-1.8-2.7-2.5-1.2-.8-2.8-1.7-4.8-2.8-4.7-2.5-8.4-4.6-11.1-6.3s-4.7-3.5-6.1-5.3-2.2-3.7-2.6-5.9c-.4-2.1-.5-4.8-.5-7.9v-10.4c0-5,.3-9,.9-12s1.7-5.3,3.3-7c1.6-1.6,3.9-2.7,6.8-3.2s6.7-.8,11.3-.8,8.3.3,11.1.8c2.9.5,5.1,1.6,6.7,3.2,1.6,1.6,2.7,4,3.3,7,.6,3,.9,7,.9,12v13.4h-15.3,0Z"></path><polygon class="st1" points="415.1 192.6 403.4 192.6 403.4 287.4 387.7 287.4 387.7 192.6 375.8 192.6 375.8 179.5 415.1 179.5 415.1 192.6"></polygon><path class="st0" d="M486.3,480.8v6.3h-3.5v-16.3h4.8c2.2,0,3.9.4,4.9,1.2,1.1.8,1.6,2,1.6,3.7s-.3,1.8-.8,2.6c-.5.7-1.3,1.3-2.2,1.8,2.5,3.7,4.1,6,4.8,7.1h-3.8l-3.9-6.3h-1.9ZM486.3,478h1.1c1.1,0,1.9-.2,2.4-.5.5-.4.8-.9.8-1.7s-.3-1.3-.8-1.7c-.5-.3-1.4-.5-2.5-.5h-1v4.4h0Z"></path><path class="st0" d="M488.5,465.8c7.5,0,13.5,6.1,13.5,13.5s-6.1,13.5-13.5,13.5-13.5-6.1-13.5-13.5,6.1-13.5,13.5-13.5M488.5,463.2c8.9,0,16.1,7.2,16.1,16.1s-7.2,16.1-16.1,16.1-16.1-7.2-16.1-16.1,7.2-16.1,16.1-16.1Z"></path></svg>
